<svg width="188" height="40" viewBox="0 0 188 40" fill="none" xmlns="http://www.w3.org/2000/svg" class="!h-[47px] !w-auto max-w-fit "><g clip-path="url(#clip0_18299_39089)"><path d="M17.66 0H22.2867C26.98 0.88 31.62 2.88 34.7667 6.59333C40.64 12.7133 41.6467 22.72 37.3 29.9667C34.2067 35.4333 28.4467 39 22.3133 40H17.72C13.5 39.1867 9.29333 37.56 6.22667 34.44C2.54 30.9467 0.42 26.04 0 21.0133V18.3467C0.633333 13.72 2.5 9.16667 5.9 5.88667C9.00667 2.63333 13.3067 0.84 17.66 0ZM9.14 5.81333C6.99333 6.61333 5.58 8.53333 4.36 10.3733C1.17333 15.4067 0.78 21.9733 3.14667 27.4133C5.22 26.4133 7.88667 25.82 9.72667 27.6067C13.24 30.7267 16.84 34.2533 21.6733 35.0667C26.16 35.8267 31.7467 35.28 34.56 31.2267C38.74 26.1 39.3267 18.8333 37.0867 12.7467C35.2867 13.1667 33.34 14.1533 31.5467 13.1933C29.0267 11.78 27.28 9.37333 24.8667 7.80667C20.42 4.53333 14.2467 3.67333 9.14 5.81333Z" fill="url(#paint0_linear_18299_39089)"></path><path d="M14.9269 10.7801C16.0736 9.93339 17.8069 10.1401 18.7469 11.2001C19.4669 12.4201 19.4736 13.9267 20.1869 15.1534C21.6603 16.4267 24.4003 15.4201 25.3003 17.5067C26.2069 19.4267 24.2736 21.8201 22.2136 21.1267C20.1669 20.6134 20.3936 18.0667 19.4603 16.5734C18.0203 15.5601 16.0269 15.9067 14.5336 16.6201C12.0203 17.8267 13.4069 21.9401 10.5669 22.7334C8.31361 23.5801 6.07361 20.8734 7.20028 18.7867C8.24695 16.7534 11.0803 17.3934 12.6069 15.9401C13.8736 14.4667 13.4936 12.1201 14.9269 10.7801Z" fill="#0D93F6"></path><path d="M21.5 12.1801C23.1 11.4667 23.5134 14.5867 22.02 14.5201C20.5134 14.9867 19.9467 12.4067 21.5 12.1801Z" fill="#0D93F6"></path><path d="M28.3134 17.6466C30.3134 16.16 33.3067 18.16 32.6601 20.5733C32.1267 23.76 27.3534 22.1866 26.4601 25.1133C25.7867 26.86 25.7267 29.6933 23.2534 29.7733C20.8201 30.0266 20.2801 27.3666 19.8001 25.5866C19.1134 23.2466 15.5801 24.8733 14.5334 22.7733C13.2067 20.7866 15.4601 18.0066 17.6801 18.94C19.8934 19.6133 18.9134 22.9 20.8734 23.8266C22.3401 24.28 24.0001 24.02 25.3267 23.28C27.3267 22.06 26.5801 19 28.3134 17.6466Z" fill="url(#paint1_linear_18299_39089)"></path><path d="M17.5128 25.46C18.2595 25.32 19.1928 25.82 19.0995 26.6667C19.2728 27.62 17.6795 28.4333 17.1062 27.5733C16.3395 27.0067 16.6795 25.7867 17.5128 25.46Z" fill="url(#paint2_linear_18299_39089)"></path><path d="M126.739 8.81104C127.272 8.81104 128.332 8.8177 128.859 8.8177C129.146 9.06437 128.572 9.55104 128.859 9.7977C131.699 10.131 135.719 9.6577 138.559 10.051C138.739 10.8177 138.919 11.5844 139.099 12.351C137.019 12.371 135.231 12.3644 133.151 12.4377C133.151 12.8908 133.151 13.095 133.151 13.4367C134.754 13.5244 137.613 13.6377 139.252 13.6377C139.279 14.2444 139.326 15.4644 139.346 16.071C138.086 16.1044 136.829 16.071 135.519 16.071C136.967 17.3427 137.545 17.371 139.412 17.371C139.332 18.1577 139.252 18.9444 139.179 19.7377C138.046 19.6777 136.879 19.791 135.792 19.4644C134.372 18.5644 133.286 17.2577 132.092 16.0977C130.926 17.291 129.746 18.4777 128.579 19.671C127.326 19.691 126.072 19.711 124.826 19.731C126.052 18.5377 127.272 17.3377 128.512 16.1644C127.466 16.1444 126.426 16.071 125.392 15.9444C124.652 15.4177 124.946 14.3044 124.686 13.5177C126.752 13.5177 128.826 13.5177 130.892 13.5244L130.866 12.371C129.119 12.3844 127.366 12.4377 125.646 12.1377C125.606 10.9244 126.292 9.88437 126.739 8.81104Z" fill="#373838"></path><path d="M175.586 8.79111C176.199 8.79109 177.311 8.75109 177.917 8.79109C178.738 9.65524 179.034 10.0799 179.516 10.4713C181.279 10.5711 185.766 10.4378 188.066 10.5711V12.9711C181.726 12.9511 175.386 13.0044 169.046 12.9378C168.912 12.1511 168.779 11.3578 168.652 10.5711C171.266 10.5644 173.872 10.5644 176.486 10.5711C176.259 10.1244 175.806 9.23778 175.586 8.79111Z" fill="#373838"></path><path d="M44.0059 10.0577C49.7992 9.90439 55.5992 9.95772 61.3925 9.99772C65.4459 9.95106 68.8325 13.7977 68.5592 17.7911C68.4992 20.4977 68.8992 23.3177 68.0925 25.9444C67.0592 28.6577 64.3725 30.7111 61.4392 30.7644C55.6792 30.8444 49.9192 30.7777 44.1592 30.7777C44.5125 29.8377 44.2125 28.3311 45.4192 27.9911C50.9325 27.4444 56.5392 28.2311 62.0525 27.6377C64.9192 27.2177 65.8059 24.0644 65.6992 21.5711C59.2725 21.5777 52.8459 21.5711 46.4192 21.5777C46.4259 20.5844 46.4325 19.5911 46.4392 18.5977C52.8725 18.6377 59.3059 18.5977 65.7392 18.6244C65.6792 16.2977 64.7392 13.5377 62.1325 13.0911C56.8125 12.7311 51.4592 13.1644 46.1325 12.9111C44.5325 13.1177 44.5392 11.0511 44.0059 10.0577Z" fill="#373838"></path><path d="M72.9129 12.6244C74.2929 10.8977 76.4862 9.92436 78.6862 9.98436C84.2529 9.97103 89.8262 9.91103 95.3929 10.0377C94.8795 11.0377 94.9062 13.0777 93.3195 12.891C88.2262 13.1244 83.1129 12.7644 78.0195 13.0244C75.2795 13.2844 73.9795 16.1377 74.2195 18.611C79.7395 18.6577 85.2729 18.4444 90.7862 18.7044C96.4195 19.471 96.6662 29.031 91.3462 30.4977C88.5195 30.9977 85.6195 30.6444 82.7662 30.751C79.6862 30.7177 76.1129 31.1844 73.6795 28.8644C71.4195 26.9977 71.1329 23.891 71.2062 21.1577C71.2595 18.2844 70.8729 14.9644 72.9129 12.6244ZM77.4729 27.571C81.6529 27.8577 85.8729 27.7444 90.0662 27.6444C92.8129 27.4177 92.1195 23.9777 91.7529 22.111C85.9862 21.0044 80.0529 21.8644 74.2129 21.591C74.0462 23.971 74.7329 27.0444 77.4729 27.571Z" fill="#373838"></path><path d="M103.033 10.2644C106.673 9.67777 110.399 10.0511 114.079 9.98444C117.753 9.77777 121.286 12.7778 121.519 16.4844C121.686 19.1511 121.726 21.8378 121.473 24.4911C121.099 27.8378 118.066 30.5844 114.713 30.6911C111.393 30.7978 108.059 30.7911 104.739 30.6911C101.373 30.6044 98.3126 27.8511 97.9259 24.4978C97.6992 21.8311 97.7259 19.1444 97.8926 16.4844C98.1059 13.6044 100.279 11.0578 103.033 10.2644ZM103.506 13.3244C102.246 13.9178 101.093 15.0978 100.973 16.5444C100.786 18.9978 100.826 21.4644 100.959 23.9178C101.039 26.1044 103.199 27.8778 105.359 27.6778C108.846 27.6311 112.379 27.9578 115.833 27.4511C119.733 25.8844 118.366 21.0511 118.566 17.7911C118.886 15.2311 116.613 12.8044 114.039 12.9844C110.539 13.0978 106.933 12.5711 103.506 13.3244Z" fill="#373838"></path><path d="M142.406 10.2178C145.606 9.73109 148.893 9.97109 152.126 10.0311C153.773 9.99109 155.093 11.5711 155.04 13.1711C155.093 15.3311 155.613 18.4711 153.14 19.5178C149.913 19.9511 146.62 19.7378 143.366 19.6778C141.693 19.7111 140.46 18.0711 140.506 16.4778C140.46 14.3444 140 11.2644 142.406 10.2178ZM143.196 12.6378C142.982 13.878 143.007 15.799 143.146 17.2778C146.22 17.2978 149.308 17.2911 152.382 17.2778C152.482 15.7378 152.542 13.5373 152.382 12.5224C149.186 12.3087 145.506 12.3157 143.196 12.6378Z" fill="#373838"></path><path d="M157.812 13.1644C157.726 11.5777 159.026 10.0177 160.652 10.0111C162.566 9.90442 164.552 9.75108 166.426 10.2644C168.019 10.9911 168.152 12.9377 168.172 14.4644C168.192 18.2377 168.159 22.0177 168.186 25.7978C168.099 27.2444 168.279 29.0511 167.019 30.0711C165.706 31.0378 163.966 30.7244 162.446 30.9111C162.219 30.0511 161.999 29.1844 161.779 28.3244C163.046 28.2577 164.319 28.1911 165.586 28.0977C165.619 26.9577 165.652 25.8244 165.686 24.6844C163.899 24.6844 162.119 24.6844 160.339 24.6844C160.339 26.6577 160.326 28.6311 160.259 30.6044C159.639 30.6577 158.399 30.7711 157.779 30.8244C157.812 24.9377 157.699 19.0511 157.812 13.1644ZM160.339 12.7444C160.212 13.8311 160.212 14.9795 160.212 16.0711C162.019 16.0777 163.826 16.0777 165.639 16.0844C165.632 14.9711 165.632 13.7458 165.632 12.6325C165.632 12.2028 160.339 12.2437 160.339 12.7444ZM160.292 18.5711C160.299 19.7644 160.312 20.9577 160.319 22.1511C162.086 22.1444 163.859 22.1444 165.632 22.1511C165.639 20.9577 165.646 19.7711 165.659 18.5777C163.872 18.4444 162.079 18.4177 160.292 18.5711Z" fill="#373838"></path><path d="M173.206 14.1311C174.139 14.1111 175.079 14.0978 176.019 14.0778C176.793 15.4111 177.573 16.7444 178.346 18.0778C179.126 16.7711 179.899 15.4644 180.679 14.1578C181.653 14.1311 182.619 14.1111 183.599 14.0911C182.346 16.2644 181.113 18.4511 179.806 20.5978C180.953 22.5978 182.113 24.5911 183.279 26.5844C182.573 26.5978 181.159 26.6244 180.453 26.6444C179.786 25.5111 179.133 24.3844 178.486 23.2444C177.746 24.3511 177.119 25.5511 176.166 26.4978C175.493 26.5444 174.146 26.6511 173.473 26.6978C174.606 24.6511 175.779 22.6311 176.953 20.5978C175.659 18.4711 174.433 16.2978 173.206 14.1311Z" fill="#373838"></path><path d="M169.753 15.2244C170.399 15.2244 171.686 15.231 172.326 15.231C172.326 19.5377 172.233 23.851 172.406 28.1577C176.386 28.2977 180.379 28.3244 184.359 28.1377C184.453 23.8377 184.419 19.531 184.393 15.231C185.246 15.231 186.106 15.231 186.966 15.231C186.873 19.431 187.093 23.6377 186.879 27.831C186.839 29.3644 185.546 30.651 184.019 30.6844C180.479 30.851 176.933 30.7577 173.399 30.7377C171.673 30.8844 169.846 29.6977 169.846 27.8377C169.639 23.6377 169.853 19.431 169.753 15.2244Z" fill="#373838"></path><path d="M128.185 21.2644C129.412 20.7511 130.779 20.9311 132.079 20.8711C138.072 20.9511 144.059 20.8244 150.052 20.9244C151.485 20.8578 153.059 21.7311 153.319 23.2311C153.685 25.1111 153.719 27.1244 153.165 28.9711C152.552 30.4711 150.799 30.8178 149.352 30.7578C142.919 30.7444 136.485 30.7911 130.052 30.7378C128.265 30.9178 126.452 29.6178 126.445 27.7444C126.432 25.5911 125.765 22.3978 128.185 21.2644ZM128.572 24.5378C136.165 24.6978 143.765 24.6911 151.359 24.5444C150.732 23.6778 149.745 23.3911 148.745 23.4511C143.192 23.4378 137.639 23.4778 132.079 23.4378C130.839 23.4844 129.332 23.2444 128.572 24.5378ZM128.559 27.1311C129.499 28.5511 131.245 28.1644 132.679 28.2378C138.039 28.1844 143.405 28.2444 148.765 28.2178C149.825 28.3844 150.685 27.7844 151.445 27.1244C143.819 26.9844 136.185 26.9778 128.559 27.1311Z" fill="#373838"></path></g><defs><linearGradient id="paint0_linear_18299_39089" x1="11.1138" y1="35.7697" x2="32.9606" y2="6.60482" gradientUnits="userSpaceOnUse"><stop stop-color="#0E6CF2"></stop><stop offset="1" stop-color="#12B7FA"></stop></linearGradient><linearGradient id="paint1_linear_18299_39089" x1="22.1658" y1="18.7489" x2="23.4437" y2="29.7902" gradientUnits="userSpaceOnUse"><stop stop-color="#0D93F6"></stop><stop offset="1" stop-color="#02C7DE"></stop></linearGradient><linearGradient id="paint2_linear_18299_39089" x1="17.728" y1="25.7553" x2="18.103" y2="27.9006" gradientUnits="userSpaceOnUse"><stop stop-color="#0D93F6"></stop><stop offset="1" stop-color="#02C7DE"></stop></linearGradient><clipPath id="clip0_18299_39089"><rect width="188" height="40" fill="white"></rect></clipPath></defs></svg>