<svg width="36" height="36" viewBox="0 0 36 36" fill="none" xmlns="http://www.w3.org/2000/svg" class="!h-[47px] !w-auto max-w-fit " style="max-height: 36px;"><path d="M20.5487 4.87509V31.5636H23.3438L24.5178 34.8897L29.4744 31.5636H35.6003V4.87509H20.5487ZM32.0878 28.0278H29.2974L25.7989 30.3757L24.9696 28.0278H24.1311V8.51803H32.0832V28.0278H32.0878ZM18.7506 16.8381H12.5641C12.6619 14.7464 12.7644 11.9793 12.8716 8.78356H18.9695L18.9649 8.40622C18.9649 8.37827 18.9555 7.72143 18.8577 7.0506C18.7599 6.35183 18.5502 5.42479 17.8794 5.42479H7.64938C7.85436 4.46514 8.38077 2.17782 9.01898 1.05513L9.31712 0.533377L8.71618 0.500768C8.67891 0.500768 7.80311 0.458842 6.78756 0.994568C5.12448 1.87968 4.37913 3.62196 4.05303 4.92633C3.19587 8.33169 1.97534 10.6982 1.45825 11.7091C1.30452 12.0072 1.21135 12.1843 1.16943 12.3054C1.08557 12.5336 1.13216 12.7619 1.29986 12.911C1.78901 13.3535 3.07941 12.7759 3.09338 12.7712C3.12133 12.7573 3.15394 12.7433 3.19587 12.7246C3.8434 12.4312 5.7627 11.56 6.44749 8.78822H9.08886C9.12147 10.2883 9.23327 15.2356 9.22395 16.8428H2.65548L2.55766 16.9126C1.48154 17.6999 1.13682 19.8568 1.12284 19.95L1.05762 20.3785H8.8373C8.2643 24.0261 7.6028 25.6613 7.25341 26.3135C7.08105 26.6396 6.91334 26.9656 6.75495 27.2824C5.7627 29.2483 4.73317 31.2794 0.871283 34.4379C0.703577 34.5683 0.545188 34.8105 0.647675 35.0761C0.759479 35.3696 1.08091 35.5 1.79366 35.5C2.04522 35.5 2.34337 35.486 2.69741 35.4534C5.022 35.2484 7.39317 34.6149 8.99103 31.3726C9.78297 29.7374 10.4678 28.0324 11.0361 26.2995L17.3949 33.7531L17.6279 33.194C17.6651 33.1055 18.513 31.0372 17.8655 28.7266L17.8422 28.6427L12.8063 22.9128L11.7815 23.6861C12.0796 22.4702 12.2753 21.3615 12.3638 20.3739H19.7568V20.0012C19.7568 18.1332 18.895 17.0244 18.8624 16.9778L18.7506 16.8381Z" fill="#1296DB"></path></svg>