<svg width="165" height="32" viewBox="0 0 165 32" fill="none" xmlns="http://www.w3.org/2000/svg" class="!h-[47px] !w-auto max-w-fit " style="max-height: 32px;"><path d="M51.7266 0.0012207C53.189 0.0035569 54.6515 0.00122095 56.1139 0.00238905C56.1116 3.54756 56.1116 7.0939 56.1139 10.6391C57.0788 9.0785 58.7457 8.01203 60.5387 7.67795C62.2967 7.34271 64.1715 7.72234 65.662 8.71172C67.2412 9.73263 68.3696 11.3563 68.9571 13.1271C69.5225 14.8209 69.6218 16.6501 69.3765 18.4116C69.0623 20.5223 68.0671 22.5677 66.4376 23.9706C64.8735 25.3501 62.7043 26.0591 60.631 25.7285C58.6545 25.4622 56.8674 24.2275 55.8406 22.528C55.7226 23.4788 55.5497 24.4214 55.4119 25.3699C54.1831 25.3641 52.9542 25.3699 51.7266 25.3664C51.7277 16.9118 51.7277 8.4559 51.7266 0.0012207ZM59.6486 11.6074C58.609 11.8235 57.6663 12.4496 57.0543 13.3152C56.1875 14.5183 55.9095 16.0766 56.0999 17.5297C56.2599 18.7889 56.8393 20.0224 57.8287 20.8401C58.7608 21.618 60.0399 21.9521 61.2349 21.7535C62.4672 21.59 63.5886 20.8284 64.2486 19.7806C65.0943 18.4525 65.2858 16.7727 64.9377 15.2531C64.641 13.9086 63.8012 12.6505 62.5607 12.0116C61.6752 11.535 60.6275 11.4345 59.6486 11.6074Z" fill="#1F1F1F"></path><path d="M82.1614 0.00116745C83.618 0.00233555 85.0758 0.00350429 86.5336 0C86.5336 8.45702 86.5336 16.9129 86.5336 25.3699C85.0758 25.3652 83.618 25.3675 82.1614 25.3675C82.1625 16.9129 82.1625 8.45702 82.1614 0.00116745Z" fill="#1F1F1F"></path><path d="M74.4698 0.374816C75.1449 0.136524 75.9264 0.180912 76.5536 0.536013C77.2966 0.948351 77.7907 1.77536 77.7837 2.6269C77.8222 3.53568 77.279 4.43395 76.4579 4.82293C75.2512 5.43501 73.575 4.90703 73.061 3.62329C72.5027 2.39445 73.1825 0.797667 74.4698 0.374816Z" fill="#1F1F1F"></path><path d="M92.6709 0.315346C93.255 0.161157 93.8998 0.203209 94.4441 0.475375C95.2524 0.860847 95.8119 1.73342 95.7862 2.63402C95.8388 3.56966 95.2501 4.48545 94.3962 4.85574C93.922 5.08351 93.3776 5.10337 92.866 5.03212C91.8591 4.87092 91.0052 4.0077 90.9048 2.98561C90.7167 1.81752 91.5204 0.598025 92.6709 0.315346Z" fill="#1F1F1F"></path><path d="M160.925 0.395904C161.696 0.102711 162.617 0.185646 163.291 0.676247C164.12 1.25212 164.497 2.37349 164.213 3.33834C163.934 4.38495 162.872 5.14538 161.79 5.06712C160.541 5.10216 159.382 4.00999 159.395 2.75079C159.327 1.74038 159.983 0.751005 160.925 0.395904Z" fill="#1F1F1F"></path><path d="M18.0961 3.93542C19.5118 3.92374 20.9264 3.91206 22.3409 3.93776C22.3386 5.28341 22.3433 6.62789 22.3386 7.97236C23.9144 7.96886 25.4901 7.97353 27.0647 7.97003C27.0612 9.18485 27.0647 10.3997 27.0635 11.6157C25.4901 11.6051 23.9179 11.6157 22.3444 11.6098C22.3374 14.0301 22.3386 16.4516 22.3433 18.8719C22.3479 19.8484 22.7953 20.8763 23.6737 21.3669C24.7939 22.0094 26.1559 21.9311 27.3836 21.7103C27.3824 22.9602 27.3813 24.2101 27.3848 25.4599C25.3394 25.8629 23.0932 25.8746 21.2044 24.8876C19.8529 24.1902 18.8717 22.8948 18.4418 21.4487C18.1638 20.5411 18.0645 19.5867 18.0774 18.6394C18.0762 16.2962 18.0832 13.953 18.0739 11.6098C17.2387 11.6133 16.4023 11.6086 15.5671 11.6133C15.5683 10.3997 15.5683 9.18485 15.5671 7.97119C16.4105 7.97236 17.2539 7.96886 18.0984 7.97353C18.0961 6.62672 18.0996 5.28107 18.0961 3.93542Z" fill="#1F1F1F"></path><path d="M101.12 3.90845C102.525 3.95868 103.934 3.92363 105.34 3.92831C105.341 5.27629 105.34 6.62544 105.341 7.97342C106.92 7.96758 108.501 7.97225 110.08 7.97109C110.078 9.18474 110.08 10.3984 110.08 11.6132C108.501 11.6085 106.922 11.6132 105.342 11.6097C105.338 13.9915 105.342 16.3732 105.34 18.755C105.338 19.7256 105.72 20.7594 106.569 21.2967C107.695 22.0174 109.12 21.9368 110.384 21.7114C110.381 22.9624 110.381 24.2135 110.384 25.4633C108.55 25.8219 106.581 25.8628 104.818 25.169C103.436 24.6351 102.295 23.5266 101.715 22.1635C101.266 21.1274 101.085 19.9885 101.093 18.8636C101.092 16.4468 101.095 14.0288 101.092 11.6109C100.248 11.612 99.4049 11.6085 98.5627 11.6132C98.5615 10.3984 98.565 9.18474 98.5615 7.97109C99.4119 7.97459 100.262 7.96525 101.114 7.97693C101.118 6.62077 101.108 5.26461 101.12 3.90845Z" fill="#1F1F1F"></path><path d="M5.17336 7.74806C7.13109 7.38946 9.18577 7.54598 11.0652 8.19661C11.6189 8.40804 12.196 8.61596 12.6562 9.00143C12.6258 9.99431 12.6538 10.9872 12.641 11.9801C12.6422 12.2499 12.6433 12.5209 12.6457 12.7907C10.911 11.5981 8.7489 11.0398 6.6545 11.215C5.93496 11.3061 5.10911 11.5619 4.76803 12.2628C4.44213 12.8924 4.7178 13.71 5.33456 14.0441C6.49214 14.7309 7.8518 14.9225 9.11802 15.3243C10.4718 15.7402 11.8771 16.2974 12.794 17.4281C13.7799 18.6546 13.892 20.3834 13.4844 21.8552C13.0825 23.3165 11.9203 24.4752 10.5478 25.0628C8.75241 25.8442 6.73043 25.9283 4.81125 25.6853C3.25885 25.4634 1.72747 24.9459 0.443737 24.0313C0.447241 22.6436 0.447241 21.2571 0.443737 19.8694C2.16434 21.4206 4.49703 22.2768 6.81453 22.1472C7.60066 22.0806 8.46505 21.9358 9.03742 21.34C9.49181 20.8891 9.59811 20.1089 9.2395 19.5704C8.94982 19.1475 8.47557 18.9127 8.02001 18.7153C6.16741 17.9584 4.10689 17.7061 2.39796 16.6139C1.47867 16.0486 0.74277 15.1503 0.506814 14.085C0.210118 12.7288 0.451913 11.2348 1.25907 10.0924C2.16317 8.80169 3.656 8.0471 5.17336 7.74806Z" fill="#1F1F1F"></path><path d="M34.6574 8.05998C35.9236 7.53317 37.3463 7.43738 38.6862 7.70371C40.4909 8.05998 42.1355 9.1977 43.0653 10.791C43.2441 9.85534 43.3585 8.90802 43.5209 7.96887C44.7416 7.97471 45.9622 7.97003 47.1829 7.9712C47.1817 13.7696 47.1794 19.5692 47.1841 25.3677C45.9622 25.3677 44.7392 25.3653 43.5174 25.37C43.3819 24.446 43.2125 23.5267 43.1074 22.5993C42.9731 22.6997 42.8761 22.8376 42.7838 22.9742C41.7127 24.5091 39.9629 25.5405 38.1044 25.7485C36.4072 25.9868 34.6492 25.509 33.2463 24.5395C31.4393 23.3118 30.2116 21.3401 29.7152 19.2281C29.2164 17.1057 29.3449 14.8233 30.1404 12.7884C30.9475 10.7057 32.5665 8.89984 34.6574 8.05998ZM37.5648 11.5958C36.3208 11.8248 35.2134 12.6331 34.5873 13.7264C33.814 15.058 33.6482 16.6969 34.0126 18.1804C34.2894 19.3193 34.9471 20.3869 35.9236 21.0515C37.1711 21.9171 38.8836 22.0526 40.2526 21.3961C41.1532 20.9721 41.8669 20.2093 42.3026 19.3204C42.9777 17.9199 43.0572 16.2624 42.6086 14.7812C42.2278 13.5103 41.319 12.3703 40.0785 11.8551C39.2924 11.5082 38.4046 11.4685 37.5648 11.5958Z" fill="#1F1F1F"></path><path d="M143.356 7.783C145.452 7.23633 147.817 7.69422 149.49 9.0936C150.075 9.56902 150.565 10.1542 150.954 10.7979C151.097 9.8552 151.26 8.91722 151.386 7.9734C152.615 7.96872 153.844 7.9734 155.074 7.96989C155.073 13.7695 155.07 19.5691 155.075 25.3675C153.845 25.3652 152.616 25.371 151.386 25.3652C151.262 24.4202 151.092 23.4822 150.96 22.5384C149.909 24.2835 148.043 25.517 146.013 25.7448C143.842 26.0649 141.607 25.1946 140.064 23.6703C138.251 21.9205 137.321 19.3822 137.307 16.8871C137.262 14.8453 137.773 12.7638 138.92 11.0595C139.951 9.49192 141.536 8.27243 143.356 7.783ZM145.39 11.6062C144.485 11.7884 143.644 12.2685 143.031 12.9577C142.1 13.9809 141.674 15.399 141.723 16.768C141.705 18.3075 142.334 19.8962 143.555 20.868C145.111 22.1424 147.583 22.1272 149.082 20.7652C150.585 19.4453 151.018 17.2481 150.632 15.3488C150.361 13.954 149.513 12.6318 148.225 11.98C147.361 11.5232 146.342 11.4415 145.39 11.6062Z" fill="#1F1F1F"></path><path d="M73.1648 7.97114C74.6202 7.96997 76.0769 7.97231 77.5335 7.96997C77.5323 13.7696 77.5311 19.5692 77.5335 25.3688C76.0769 25.3664 74.6214 25.3664 73.1648 25.3688C73.166 19.5692 73.1671 13.7707 73.1648 7.97114Z" fill="#1F1F1F"></path><path d="M91.1746 25.3688C91.1769 19.5692 91.1757 13.7696 91.1757 7.96997C92.6312 7.97347 94.0866 7.96997 95.5421 7.97114C95.5397 13.7707 95.5386 19.5692 95.5421 25.3676C94.0866 25.3676 92.63 25.3664 91.1746 25.3688Z" fill="#1F1F1F"></path><path d="M111.673 7.97342C113.248 7.96641 114.823 7.97459 116.397 7.96992C117.765 11.9882 119.086 16.0228 120.477 20.0317C121.9 16.0286 123.213 11.9847 124.602 7.96875C126.104 7.97342 127.605 7.96992 129.107 7.97108C125.949 15.9784 122.806 23.9915 119.649 32C118.177 31.9942 116.706 32 115.235 31.9965C116.237 29.6089 117.216 27.2108 118.214 24.8209C116.036 19.2047 113.85 13.5908 111.673 7.97342Z" fill="#1F1F1F"></path><path d="M159.666 7.97236C161.127 7.97002 162.59 7.97236 164.052 7.97119C164.05 13.7696 164.05 19.5692 164.052 25.3677C162.59 25.3665 161.127 25.3688 159.665 25.3665C159.667 19.5681 159.665 13.7696 159.666 7.97236Z" fill="#1F1F1F"></path><path d="M130.888 20.5795C131.744 20.2641 132.773 20.4043 133.475 21.0035C134.436 21.7686 134.673 23.2521 134.038 24.2941C133.526 25.1923 132.433 25.6993 131.417 25.5217C130.5 25.3979 129.686 24.7262 129.397 23.8467C128.933 22.5886 129.594 21.0164 130.888 20.5795Z" fill="#E80000"></path></svg>