<svg width="36" height="36" viewBox="0 0 36 36" fill="none" xmlns="http://www.w3.org/2000/svg" class="!h-[47px] !w-auto max-w-fit " style="max-height: 36px;"><path d="M30.1153 16.6161L25.3201 35.5379C25.3084 35.5899 25.3087 35.6438 25.3209 35.6954C25.3332 35.7472 25.3571 35.7955 25.3907 35.8368C25.4245 35.8779 25.4672 35.9108 25.5155 35.9329C25.5639 35.9551 25.6166 35.966 25.6699 35.9646H35.2567C35.3098 35.966 35.3627 35.9551 35.411 35.9329C35.4594 35.9108 35.5021 35.8779 35.5357 35.8368C35.5695 35.7955 35.5934 35.7472 35.6056 35.6954C35.6179 35.6438 35.6182 35.5899 35.6065 35.5379L30.7868 16.6161C30.7657 16.5435 30.7215 16.4798 30.6609 16.4343C30.6004 16.3889 30.5267 16.3644 30.451 16.3644C30.3754 16.3644 30.3017 16.3889 30.2412 16.4343C30.1806 16.4798 30.1364 16.5435 30.1153 16.6161Z" fill="#00E5E5"></path><path d="M3.72299 20.9035L0.00859289 35.5373C-0.00312766 35.5891 -0.00285486 35.643 0.0093905 35.6948C0.0216359 35.7466 0.045531 35.7949 0.0792574 35.836C0.112984 35.8771 0.155652 35.9101 0.204016 35.9323C0.252378 35.9544 0.305162 35.9653 0.358348 35.964H7.75918C7.81237 35.9653 7.86515 35.9544 7.91351 35.9323C7.96187 35.9101 8.00454 35.8771 8.03827 35.836C8.07199 35.7949 8.09589 35.7466 8.10814 35.6948C8.12038 35.643 8.12065 35.5891 8.10893 35.5373L4.39104 20.9035C4.36889 20.8321 4.32453 20.7699 4.26443 20.7256C4.20434 20.6812 4.13165 20.6575 4.05701 20.6575C3.98237 20.6575 3.90969 20.6812 3.84959 20.7256C3.7895 20.7699 3.74514 20.8321 3.72299 20.9035Z" fill="#00E5E5"></path><path d="M10.2744 8.78729L3.50665 35.5365C3.49524 35.587 3.49518 35.6394 3.50646 35.6899C3.51773 35.7404 3.54007 35.7877 3.57185 35.8285C3.60363 35.8693 3.64407 35.9026 3.69024 35.9259C3.73642 35.9491 3.7872 35.9619 3.83891 35.9632H17.378C17.4311 35.9646 17.484 35.9537 17.5323 35.9315C17.5807 35.9094 17.6233 35.8765 17.657 35.8354C17.6908 35.7943 17.7147 35.7458 17.7269 35.6942C17.7392 35.6424 17.7394 35.5885 17.7278 35.5365L10.9424 8.78729C10.9203 8.71599 10.876 8.65367 10.8159 8.6094C10.7557 8.56514 10.6831 8.54126 10.6084 8.54126C10.5338 8.54126 10.4611 8.56514 10.401 8.6094C10.3409 8.65367 10.2965 8.71599 10.2744 8.78729Z" fill="#006EFF"></path><path d="M21.9481 0.281289C21.926 0.210011 21.8817 0.147686 21.8216 0.103416C21.7614 0.0591603 21.6888 0.0352783 21.6142 0.0352783C21.5395 0.0352783 21.4668 0.0591603 21.4068 0.103416C21.3466 0.147686 21.3023 0.210011 21.2801 0.281289L12.0291 35.5367C12.0174 35.5885 12.0177 35.6424 12.0299 35.6942C12.0421 35.746 12.066 35.7943 12.0998 35.8354C12.1335 35.8765 12.1762 35.9096 12.2245 35.9317C12.2729 35.9539 12.3257 35.9646 12.3789 35.9634H30.8669C30.9202 35.9646 30.9729 35.9539 31.0213 35.9317C31.0696 35.9096 31.1123 35.8765 31.1461 35.8354C31.1797 35.7943 31.2036 35.746 31.216 35.6942C31.2281 35.6424 31.2284 35.5885 31.2167 35.5367L21.9481 0.281289Z" fill="#006EFF"></path><path d="M15.1528 12.6777L9.28382 35.5342C9.27148 35.5863 9.27128 35.6406 9.28323 35.6928C9.2952 35.7449 9.31899 35.7938 9.35279 35.8354C9.38658 35.8769 9.42949 35.9102 9.47816 35.9325C9.52685 35.9548 9.58002 35.9659 9.63358 35.9644H21.3434C21.397 35.9659 21.4501 35.9548 21.4988 35.9325C21.5474 35.9102 21.5904 35.8769 21.6242 35.8354C21.658 35.7938 21.6817 35.7449 21.6938 35.6928C21.7057 35.6406 21.7055 35.5863 21.6932 35.5342L15.8208 12.6777C15.7986 12.6063 15.7543 12.5441 15.6941 12.4997C15.6341 12.4554 15.5614 12.4316 15.4867 12.4316C15.4121 12.4316 15.3395 12.4554 15.2793 12.4997C15.2193 12.5441 15.1749 12.6063 15.1528 12.6777Z" fill="#00E5E5"></path></svg>