<svg width="40" height="40" viewBox="0 0 40 40" fill="none" xmlns="http://www.w3.org/2000/svg" class="!h-[47px] !w-auto max-w-fit "><path d="M23.3626 0.563806C24.1305 0.466458 25.0265 0.397954 25.6142 1.00728C26.6381 2.0132 26.6381 3.5924 26.6489 4.93363C26.53 8.39668 25.7422 11.8309 24.3775 15.0163C24.1918 15.4327 24.0097 15.851 23.8042 16.2584C23.8024 16.3251 23.797 16.4567 23.7952 16.5216C28.6103 23.1809 33.3894 29.8672 38.1936 36.5337C38.7831 37.3341 39.3185 38.1724 39.9531 38.9404C37.1805 39.0017 34.4061 38.9404 31.6335 38.971C31.1972 39.0071 30.7574 39.0431 30.3301 38.9241C26.7896 33.927 23.139 29.0055 19.557 24.0372C18.4898 25.6182 17.3955 27.1811 16.3445 28.773C16.2544 28.8216 16.0777 28.9154 15.9876 28.964C15.326 28.9496 14.6626 28.9514 14.001 28.9604C14.0136 28.8126 14.028 28.6648 14.0424 28.517C17.9598 23.792 20.7684 18.1855 22.4774 12.3014C22.8776 10.2445 23.2814 8.10283 22.7785 6.02789C22.4955 5.27254 21.9132 4.38379 20.9992 4.43968C19.2938 4.41985 17.83 5.45462 16.4599 6.35058C16.3788 6.31993 16.2183 6.26224 16.1372 6.2334C15.9732 5.95938 15.7965 5.69438 15.6054 5.442C17.738 3.22464 20.361 1.36422 23.3626 0.563806Z" fill="#0657A0"></path><path d="M18.9837 10.4553C19.045 10.4445 19.1658 10.4246 19.227 10.4138C19.8256 11.2809 20.4529 12.1282 21.0604 12.9881C21.2046 13.199 21.1109 13.4694 21.064 13.6984C20.3051 16.2925 19.1549 18.7497 17.9038 21.1383C16.8835 19.7772 15.8776 18.4071 14.8482 17.0533C14.3975 16.3646 13.8008 15.7733 13.4385 15.0288C15.3079 13.5325 17.1773 12.0273 18.9837 10.4553Z" fill="#0657A0"></path><path d="M9.62456 12.7341C9.88956 12.7504 10.1257 12.8603 10.3438 13.01C8.98098 14.7947 8.0075 16.8299 6.86818 18.7553C5.27997 21.7478 3.93874 24.8954 3.11669 28.189C2.794 29.6023 2.62635 31.0607 2.74353 32.5101C2.922 33.5809 3.1239 34.8645 4.17309 35.4431C5.47106 35.7821 6.85195 35.335 7.81822 34.4318C9.02425 34.3867 10.2321 34.403 11.4381 34.4192C10.8919 35.1637 10.1077 35.6649 9.42986 36.2742C7.84526 37.5271 6.1561 38.6989 4.2452 39.3965C3.46101 39.5426 2.49836 39.6291 1.90526 38.9783C0.96423 37.9129 0.737086 36.4328 0.603684 35.0664C0.526166 31.0048 1.91427 27.0947 3.54935 23.4315C4.84551 20.6499 6.32195 17.953 7.97325 15.3679C8.49785 14.4738 9.12881 13.6445 9.62456 12.7341Z" fill="#0657A0"></path><path d="M13.9197 29.9303C14.7291 29.6887 15.6575 29.6382 16.4057 30.0817C16.6797 30.2367 16.7572 30.5414 16.8239 30.8262C16.5733 30.819 16.3227 30.8118 16.074 30.7992C15.6395 30.2079 14.8625 30.4459 14.2406 30.4639C14.0242 30.5985 14.0242 30.943 14.1919 31.1345C14.9346 31.3328 15.7495 31.2895 16.4453 31.6429C16.9879 31.8934 17.1105 32.6758 16.7103 33.1013C16.3029 33.5826 15.6287 33.6619 15.0356 33.6385C14.3433 33.6111 14.0427 33.5734 13.8332 33.3122C13.5916 33.0111 13.3879 32.6794 13.332 32.29C13.5051 32.2828 13.8512 32.2702 14.0242 32.263C14.1757 32.5442 14.1919 32.7935 14.6606 32.9498C14.8671 33.0187 16.2849 33.1806 16.1028 32.2558C16.0645 32.061 15.3477 31.9832 14.8932 31.9349C14.3505 31.8772 13.6331 31.861 13.3608 31.2913C13.1553 30.7541 13.4726 30.2205 13.9197 29.9303Z" fill="#0657A0"></path><path d="M4.81814 30.0331C5.8475 29.4112 7.69349 29.7591 7.83951 31.1292C7.62138 31.1274 7.40506 31.1238 7.18693 31.122C6.71281 30.5127 5.75376 30.0746 5.10838 30.6839C4.27371 31.2878 4.57116 32.9013 5.66542 32.9842C6.3126 33.1555 6.98142 32.739 7.1004 32.081C7.38343 32.0702 7.66645 32.0648 7.94948 32.063C7.79445 32.6345 7.49519 33.1573 6.98682 33.4818C6.07644 33.7522 4.96416 33.7558 4.24667 33.0455C3.44085 32.1423 3.71667 30.5686 4.81814 30.0331Z" fill="#0657A0"></path><path d="M10.1191 29.7357C10.4742 29.7339 10.8276 29.7303 11.1809 29.7213C11.7199 30.9706 12.1291 32.2704 12.6465 33.5287C12.3545 33.5305 12.0624 33.5341 11.7722 33.5359C11.6839 33.2817 11.5901 33.0329 11.5 32.7824C10.9177 32.7896 10.3354 32.7914 9.75313 32.7914C9.65939 33.0239 9.57646 33.2637 9.45207 33.4818C9.16905 33.5575 8.8734 33.5341 8.58496 33.5449C9.09153 32.2722 9.57827 30.9922 10.1191 29.7357ZM10.705 30.4965C10.4634 31.0193 10.2056 31.5331 10.0073 32.0739C10.4237 32.0757 10.8402 32.0793 11.2566 32.0793C11.0727 31.5511 10.8438 31.0391 10.705 30.4965Z" fill="#0657A0"></path><path d="M17.6101 33.5502C17.6173 32.2792 17.5903 31.0101 17.6281 29.741C17.8156 29.7356 18.1924 29.7248 18.3799 29.7194C18.6611 30.9578 18.4358 32.2504 18.5115 33.5123C18.2104 33.5267 17.9112 33.5375 17.6101 33.5502Z" fill="#0657A0"></path><path d="M20.716 29.7175C21.0639 29.7283 21.4136 29.7338 21.7634 29.7374C22.2483 30.9957 22.7765 32.2414 23.1677 33.5321C22.9009 33.5339 22.6377 33.5375 22.3727 33.5393C22.2754 33.2905 22.1744 33.0418 22.0789 32.793C21.4713 32.7822 20.8638 32.7786 20.2563 32.8092C20.1716 33.0562 20.085 33.3014 19.9967 33.5483C19.7912 33.5429 19.3784 33.5357 19.1729 33.5303C19.656 32.2486 20.1301 30.9578 20.716 29.7175ZM20.5087 32.0683C20.9612 32.0737 21.4118 32.0737 21.8643 32.0719C21.6372 31.5383 21.3992 31.0119 21.1721 30.4801C20.9213 31.0841 20.716 31.5273 20.5087 32.0683Z" fill="#0657A0"></path><path d="M10.3119 4.33506C11.1304 3.99795 12.0335 4.07907 12.8934 4.14938C13.0773 4.21608 13.2612 4.27917 13.4469 4.33866C15.5687 5.10663 16.7927 7.69896 15.9797 9.82257C15.785 10.2715 15.5615 10.7059 15.2712 11.1025C14.8043 11.5442 14.341 12.0057 13.7497 12.2779C12.1615 12.9792 10.1226 12.7106 8.87515 11.4577C8.63178 11.1494 8.383 10.8483 8.14684 10.5365C7.90167 10.0191 7.7232 9.47465 7.59881 8.9176C7.54113 8.10457 7.64929 7.28613 7.96657 6.53439C8.48576 5.56812 9.3078 4.78033 10.3119 4.33506Z" fill="#D60125"></path></svg>