<svg width="38" height="43" viewBox="0 0 38 43" fill="none" xmlns="http://www.w3.org/2000/svg" class="!h-[47px] !w-auto max-w-fit "><path fill-rule="evenodd" clip-rule="evenodd" d="M19.5131 0.771484H18.6881C15.2543 3.06394 11.6287 5.09661 8.00594 7.12767C5.98705 8.25955 3.96905 9.39093 1.98563 10.5665C1.68562 10.8515 1.08564 11.4065 0.785645 11.684V31.709C1.66662 32.6646 2.79202 33.2701 3.91853 33.8762C4.48951 34.1834 5.06078 34.4908 5.60064 34.844C7.53296 35.9231 9.44952 37.031 11.3657 38.1387C14.031 39.6795 16.6955 41.2198 19.4006 42.6815C22.5863 40.8068 25.8009 38.9855 29.0154 37.1644C31.7038 35.6412 34.392 34.1182 37.0631 32.564C37.9369 31.5389 37.8353 30.196 37.7344 28.8621C37.6802 28.1467 37.6263 27.4338 37.7231 26.774V26.766C37.7231 22.0811 37.7231 17.4038 37.7306 12.719C37.8731 11.7665 37.5431 11.0615 36.7331 10.5965C34.4351 9.29148 32.1419 7.97448 29.8487 6.65748C26.4089 4.68198 22.9691 2.70648 19.5131 0.771484ZM31.6331 15.2015C30.0038 16.1773 28.3458 17.1034 26.6879 18.0294C24.3698 19.3244 22.052 20.6191 19.8131 22.049C20.7281 19.454 18.9281 17.4815 16.5956 16.7165C18.4647 15.7379 20.2908 14.6876 22.1181 13.6365C23.2458 12.9879 24.374 12.339 25.5131 11.7065C23.8481 10.0527 20.4731 8.36524 18.7181 8.00149C17.0176 8.94171 15.3339 9.91419 13.6498 10.887C11.6127 12.0636 9.5749 13.2406 7.50564 14.3615C6.96436 15.572 7.02035 16.889 7.07628 18.2046C7.10559 18.8941 7.13489 19.5833 7.07815 20.2565C7.12867 21.3035 7.09935 22.36 7.07001 23.4173C7.02095 25.1849 6.97183 26.9548 7.29564 28.6865C8.76023 29.7133 10.3261 30.5844 11.8893 31.454C12.4955 31.7912 13.1013 32.1282 13.7006 32.474C13.7231 28.799 13.7156 25.124 13.6706 21.4415C15.3206 23.264 17.7881 23.2715 19.8131 22.0565C19.841 24.3954 19.8329 26.7363 19.8248 29.0772C19.8177 31.1426 19.8106 33.2079 19.8281 35.2715C21.8913 34.306 23.8576 33.1386 25.8245 31.9708C27.0967 31.2155 28.3691 30.4601 29.6681 29.759C29.8002 29.6753 29.9439 29.5939 30.0908 29.5107C30.7864 29.1166 31.5539 28.6818 31.4981 27.7715C31.6549 25.6883 31.6092 23.5996 31.5634 21.5118C31.5173 19.4052 31.4712 17.2996 31.6331 15.2015Z" fill="url(#paint0_linear_9620_20203)"></path><circle cx="16.8169" cy="20.1777" r="3.65625" fill="#1864DB"></circle><defs><linearGradient id="paint0_linear_9620_20203" x1="19.2926" y1="0.771484" x2="19.2926" y2="42.6815" gradientUnits="userSpaceOnUse"><stop stop-color="#74C0F5"></stop><stop offset="1" stop-color="#3579E5"></stop></linearGradient></defs></svg>