<svg xmlns="http://www.w3.org/2000/svg" width="1.361em" height="1em" fill="none" viewBox="0 0 49 36" style="font-size:36px"><path fill="#fff" fill-rule="evenodd" d="M21.097 2.977h7.52l5.785 6.078v3.52l-11.07 11.667-11.07-11.668V9.055l5.786-6.078h.946" clip-rule="evenodd"></path><path fill="#F5E7C4" fill-rule="evenodd" d="m17.174 3.13 11.397-.045 5.784 5.521-.046 2.848-10.911 12.007L12.486 13.34l-.306-3.812z" clip-rule="evenodd"></path><path fill="#FEFEF6" fill-rule="evenodd" d="m12.033 9.317.152-1.287 6.054-4.65 9.654.02 4.414 3.396.265 2.534c-1.415 1.898-3.95 6.462-9.82 6.485-4.711.017-8.79-4.524-10.72-6.498" clip-rule="evenodd"></path><path fill="#E7A436" fill-rule="evenodd" d="m18.704 4.507-4.911 5.16v2.296l6.741 7.105 1.893-5.399H18.24l2.705-9.162zm.788-3.061h9.125c.418 0 .82.172 1.108.475L35.51 8c.27.285.422.663.422 1.056v3.518c0 .392-.15.77-.42 1.054l-11.07 11.667a1.53 1.53 0 0 1-2.221 0l-11.07-11.667a1.53 1.53 0 0 1-.42-1.054V9.055c0-.393.15-.771.422-1.056l5.785-6.078c.29-.303.69-.475 1.109-.475h1.441m1.422 18.02 2.421 2.551 9.54-10.054V9.666l-4.911-5.16h-1.167l-2.357 5.17 4.587.005z" clip-rule="evenodd"></path><path fill="#FE3F4E" fill-rule="evenodd" d="M49 23.335a4.343 4.343 0 0 0-4.343-4.338H4.337A4.342 4.342 0 0 0 0 23.335v7.674a4.342 4.342 0 0 0 4.337 4.338h40.32A4.344 4.344 0 0 0 49 31.009z" clip-rule="evenodd"></path><path fill="#fff" d="M5.786 22.33h.866l-.142 1.272h.734c.27 0 .468.055.591.167.128.111.19.282.19.513 0 .045-.005.126-.02.245l-.5 4.562H5.87l-.312 2.755h-.88l.312-2.755H3.42l.525-4.751c.038-.253.123-.44.256-.558.132-.12.336-.178.615-.178h.823zm2.897 4.239a.55.55 0 0 1-.388-.134.418.418 0 0 1-.147-.324c0-.193.113-.36.336-.502a20.563 20.563 0 0 0 2.712-1.896H8.484l.114-.948h3.43c.228 0 .403.048.53.145a.45.45 0 0 1 .2.38c0 .2-.104.397-.303.59a15.432 15.432 0 0 1-2.343 1.73h2.007c.312 0 .544.06.686.183.147.123.218.322.218.597 0 .097-.005.171-.01.223-.038.491-.118 1.242-.236 2.253-.08.7-.175 1.41-.28 2.13-.052.328-.16.56-.331.698-.175.138-.416.192-.738.162a6.855 6.855 0 0 1-1.274-.257l.105-.993c.487.142.847.227 1.07.257h.056c.043 0 .076-.011.095-.033a.362.362 0 0 0 .047-.146c.114-.677.208-1.357.293-2.04.119-.997.19-1.689.223-2.075h-.535c-.232 1.145-.554 2.15-.97 3.017a8.575 8.575 0 0 1-1.666 2.348l-.88-.469a8.412 8.412 0 0 0 1.708-2.23c.379-.722.682-1.61.914-2.666h-.601a9.401 9.401 0 0 1-.9 2.409 7.691 7.691 0 0 1-1.566 1.974l-.847-.458c.653-.602 1.169-1.222 1.538-1.862a8.02 8.02 0 0 0 .838-2.063zm-3.157-2.075h-.734l-.165 1.416h.743zm1.462 1.416.156-1.416h-.747L6.24 25.91zm-1.718.86h-.748l-.156 1.427h.739zm.705 1.427h.758l.156-1.428H6.14zM23.563 22.909l-.11.88h-8.745l.099-.88h3.838l-.213-.658h1.174l.208.658zm-1.26 3.67h-6.88l.155-1.562c.057-.49.35-.725.871-.703h5.173c.27 0 .474.064.62.19.147.126.218.305.218.535 0 .075-.005.13-.01.167zm-5.787-.826h4.827l.057-.613H16.59zm1.651 6.124c-.762-.067-1.377-.205-1.855-.413l.156-.96c.166.075.407.153.73.235l.378.1c.07.023.175.041.312.056.014.008.038.011.066.011.08 0 .133-.063.156-.19l.11-.936h-4.194l.1-.893h4.207l.033-.256 2.054-.692h-5.045l.104-.848h6.143c.194 0 .346.05.445.151.104.1.156.221.156.363a.5.5 0 0 1-.1.295.635.635 0 0 1-.278.218l-2.007.77h3.47l-.1.892h-3.895l-.175 1.517c-.048.238-.147.401-.303.49-.157.09-.379.12-.668.09M26.298 27.17a18.83 18.83 0 0 1-1.396 2.197l-.857-.479c.445-.558.871-1.166 1.274-1.824.407-.658.766-1.325 1.079-2.002h-1.43l.123-1.015h1.572l.213-1.751h1.06l-.213 1.75h1.084l-.114 1.016h-1.079l-.024.212c.469.751.928 1.58 1.382 2.487l-.847.547a51.958 51.958 0 0 0-.714-1.54l-.601 5.087h-1.06zM33.057 32a12.262 12.262 0 0 1-1.955-2.487c-.705.84-1.547 1.65-2.532 2.431l-1.055-.602a14.798 14.798 0 0 0 3.034-2.844c-.658-1.354-1.127-2.863-1.406-4.53h-.327l.114-1.07h4.326c.326 0 .54.119.639.357.037.097.052.2.052.313 0 .156-.029.342-.086.557a13.28 13.28 0 0 1-2.054 4.473c.587.99 1.363 1.933 2.334 2.833zm-2.901-8.031c.222 1.316.587 2.506 1.093 3.57.752-1.16 1.23-2.269 1.439-3.325.01-.03.01-.067.01-.111 0-.052-.01-.087-.039-.106-.023-.019-.066-.028-.127-.028zM42.191 23.89h2.244l-.123.96h-8.69l.114-.96h2.229l-.601-1.605h1.103l.648 1.606h1.926l.838-1.562h1.117zm-2.887 1.35-2.49 1.997h-1.627l2.532-1.997zm2.845 0 2.31 2.042h-1.477l-2.263-2.042zm2.016 5.51-.1.96h-9.257l.109-.96h.937l.336-2.587c.038-.268.137-.478.303-.63.16-.153.383-.23.658-.23h5.296c.307 0 .54.077.705.23.161.152.227.38.199.686l-.322 2.532zm-5.897-2.543H37.24l-.336 2.544h1.05zm2.049 0h-1.103l-.312 2.544h1.103zm1.675 2.544.313-2.544h-1.06l-.313 2.544z"></path></svg>