<svg width="61" height="54" viewBox="0 0 61 54" fill="none" xmlns="http://www.w3.org/2000/svg" class="!h-[47px] !w-auto max-w-fit "><g clip-path="url(#clip0_9620_20289)"><path d="M60.1366 32.1961C59.8536 32.7683 59.4252 33.2556 58.8944 33.6089C58.3636 33.9622 57.7493 34.1691 57.1133 34.2087C55.3857 34.4486 55.0677 35.0474 55.8568 36.5314C56.0998 36.917 56.2078 37.3726 56.1638 37.8265C56.1198 38.2804 55.9263 38.7067 55.6137 39.0382C55.4507 39.1991 55.3414 39.4067 55.3007 39.6323C55.26 39.858 55.2899 40.0907 55.3864 40.2987C55.4066 40.8817 55.2925 41.4616 55.0527 41.9933C54.8403 42.5087 54.6915 43.0481 54.6096 43.5997C54.6096 44.4169 54.8954 45.2305 54.9218 46.0506C55.0005 48.2315 54.1907 49.5071 52.0557 50.0306C50.078 50.4413 48.0796 50.7443 46.0691 50.9381C45.1779 51.0555 44.2623 51.0097 43.3796 51.1594C42.7634 51.2274 42.1751 51.4536 41.6716 51.816C41.1682 52.1785 40.7666 52.665 40.5057 53.2285H40.2798L39.5 52.8203C39.886 52.0481 40.465 51.3892 41.1806 50.9079C41.8962 50.4265 42.724 50.1391 43.5833 50.0736C45.8605 49.8372 48.1434 49.6539 50.4184 49.4011C51.0122 49.3113 51.5937 49.1534 52.1515 48.9305C52.6857 48.7857 53.1515 48.456 53.4663 47.9999C53.7811 47.5438 53.9245 46.9908 53.8712 46.4388C53.819 45.4662 53.5489 44.4971 53.5689 43.5309C53.6683 42.8208 53.8472 42.1241 54.1021 41.4539C54.19 41.113 54.3994 40.6955 54.2843 40.4298C54.1126 40.1341 54.0512 39.7869 54.1111 39.4501C54.1709 39.1133 54.348 38.8087 54.611 38.5905C54.7435 38.4878 54.8541 38.3596 54.9366 38.2134C55.019 38.0673 55.0716 37.9062 55.0912 37.7395C55.1108 37.5727 55.0969 37.4038 55.0505 37.2425C55.0042 37.0811 54.9262 36.9307 54.8211 36.8C53.8919 35.0675 54.581 33.6723 56.4786 33.2433C56.6616 33.2017 56.846 33.1666 57.0311 33.1365C58.8894 32.8364 59.0795 32.4991 58.2547 30.8267C58.3745 30.6983 58.5045 30.58 58.6435 30.4729C58.7799 30.403 58.9237 30.3489 59.0723 30.3118L60.1402 31.7442L60.1366 32.1961Z" fill="#1F1F1F"></path><path d="M39.8275 0.224976C40.1686 0.346732 40.51 0.468011 40.8517 0.588813C40.9317 1.6882 40.9317 1.68821 38.9219 1.27495V0.224976H39.8275Z" fill="#1F1F1F"></path><path d="M53.3159 24.191L53.6483 21.3813L54.0429 21.2495L54.7326 22.0066C54.1022 22.5781 55.1271 24.0263 53.3159 24.191Z" fill="#1F1F1F"></path><path d="M56.3308 26.6942L55.4524 27.3495L54.1895 25.4981L55.0865 24.8685L56.3308 26.6942Z" fill="#1F1F1F"></path><path d="M57.0271 27.6317L58.3372 29.37L57.4917 30.0862L56.1973 28.345L57.0271 27.6317Z" fill="#1F1F1F"></path><path d="M47.4644 4.86894L48.1462 4.02954L49.7673 5.51068L49.0568 6.34936L47.4644 4.86894Z" fill="#1F1F1F"></path><path d="M49.7344 7.13005L50.5427 6.40381L51.8864 8.08476L51.0473 8.79167L49.7344 7.13005Z" fill="#1F1F1F"></path><path d="M41.8623 1.91167L42.2089 0.867432L44.2495 1.65025L43.7914 2.62789L41.8623 1.91167Z" fill="#1F1F1F"></path><path d="M51.665 9.64683L52.5863 9.07385L53.687 10.8601L52.7871 11.4753L51.665 9.64683Z" fill="#1F1F1F"></path><path d="M55.0579 14.0472L53.9014 14.3538C54.0444 13.5344 52.5685 12.7373 54.2216 11.9702L55.0579 14.0472Z" fill="#1F1F1F"></path><path d="M55.3748 20.6888L54.3257 20.365C54.4057 19.7727 54.4836 19.1976 54.5765 18.5143L55.6722 18.4198L55.3748 20.6888Z" fill="#1F1F1F"></path><path d="M45.3103 2.15515L47.1436 3.26958L46.5968 4.20568L44.8457 3.15857L45.3103 2.15515Z" fill="#1F1F1F"></path><path d="M54.1084 15.4052L55.3442 15.214L55.675 17.2753C53.866 17.5474 54.7459 16.0699 54.1084 15.4052Z" fill="#1F1F1F"></path><path d="M0.136719 9.26733H6.47786C9.36016 9.26733 11.4017 10.0074 12.6024 11.4876C13.8032 12.9678 14.4036 15.0926 14.4036 17.8619V29.4832C14.4036 32.3959 13.8211 34.6283 12.656 36.1806C11.491 37.7329 9.51573 38.5085 6.73017 38.5076H0.136719V9.26733ZM6.54934 36.4528C7.72156 36.5401 8.88743 36.2146 9.8457 35.5324C10.5878 34.9025 11.0905 34.0353 11.2687 33.0772C11.5113 31.7498 11.62 30.4013 11.5932 29.0521V18.1484C11.6275 16.8669 11.4944 15.5865 11.1973 14.3396C10.9759 13.4508 10.4377 12.6738 9.68417 12.1551C8.70094 11.5889 7.57319 11.3251 6.44141 11.3966H2.87487V36.452L6.54934 36.4528Z" fill="#1F1F1F"></path><path d="M26.1758 9.04883H28.9139V38.2919H26.1758V9.04883Z" fill="#1F1F1F"></path><path d="M34.1045 9.04883H40.4456C43.3279 9.04883 45.3694 9.78892 46.5702 11.2691C47.771 12.7493 48.3714 14.8741 48.3714 17.6434V29.2683C48.3714 32.1809 47.7888 34.4134 46.6238 35.9657C45.4588 37.5179 43.4833 38.2941 40.6972 38.2941H34.1045V9.04883ZM40.5178 36.2342C41.6901 36.3216 42.856 35.9961 43.8142 35.3139C44.5563 34.684 45.0589 33.8168 45.2372 32.8587C45.4798 31.5313 45.5885 30.1828 45.5617 28.8336V17.9299C45.596 16.6484 45.4629 15.368 45.1658 14.1211C44.9444 13.2323 44.4062 12.4553 43.6527 11.9366C42.6695 11.3703 41.5417 11.1066 40.4099 11.1781H36.8433V36.2335L40.5178 36.2342Z" fill="#1F1F1F"></path><path d="M17.0996 21.781H22.9719V23.3896H17.0996V21.781Z" fill="#1F1F1F"></path></g><defs><clipPath id="clip0_9620_20289"><rect width="60" height="53" fill="white" transform="translate(0.136719 0.22644)"></rect></clipPath></defs></svg>