<svg width="43" height="43" viewBox="0 0 43 43" fill="none" xmlns="http://www.w3.org/2000/svg" class="!h-[47px] !w-auto max-w-fit "><path d="M42.8233 26.2463C42.7825 26.1801 42.7367 26.1139 42.6858 26.0578L37.3957 16.8909L39.7734 12.7657C39.8702 12.6792 39.9516 12.5773 40.0178 12.4653C40.2317 12.0935 40.2266 11.6402 40.0178 11.2685L36.9884 6.06875C36.7745 5.70207 36.3825 5.47799 35.9599 5.47799L25.2829 5.48817L22.8594 1.32229C22.6455 0.955615 22.2535 0.72644 21.8258 0.72644H16.2811C15.8534 0.72644 15.4614 0.955615 15.2476 1.32229C15.2068 1.3885 15.1763 1.46489 15.1508 1.53619L9.86581 10.6981H4.93721C4.84556 10.6777 4.75392 10.6675 4.66227 10.6675C4.23458 10.6675 3.84253 10.8967 3.62869 11.2685L0.639963 16.4936C0.43121 16.8603 0.43121 17.3136 0.639963 17.6853L5.98607 26.9287L3.59305 31.1048C3.3792 31.4714 3.3843 31.9247 3.59305 32.2965L6.36284 37.0989C6.57668 37.4707 6.96873 37.6948 7.39642 37.6948C7.47788 37.6948 7.55426 37.6846 7.63063 37.6693H18.1955L20.7769 42.1306C20.9806 42.482 21.3472 42.701 21.7443 42.7264C21.7698 42.7264 21.8003 42.7264 21.8258 42.7264L27.844 42.701C28.2666 42.701 28.6586 42.4718 28.8725 42.1051L34.2033 32.8516L39.0148 32.8363C39.4374 32.8363 39.8294 32.6071 40.0433 32.2404L42.8131 27.438C43.0269 27.0662 43.0269 26.6129 42.8131 26.2412L42.8233 26.2463ZM36.1126 26.8167L33.2003 21.7748L21.8105 41.5347L18.888 36.4776H7.44733L10.2629 31.5988H16.0673L4.68263 11.8949H10.5583L16.2862 1.96907L19.1018 6.84794L16.1946 11.8847L38.9079 11.8745L36.0159 16.8858L41.7439 26.8116H36.1075L36.1126 26.8167Z" fill="#5D5DE6"></path><path d="M21.7797 29.6687L28.5871 17.8636L14.9673 17.8738L21.7797 29.6687Z" fill="#5D5DE6"></path></svg>