<svg width="147" height="44" viewBox="0 0 147 44" fill="none" xmlns="http://www.w3.org/2000/svg" class="!h-[47px] !w-auto max-w-fit "><path d="M60.0194 10.6896H56.8312V18.1821H59.2224V20.8921H56.8312V31.3735H53.1647V20.9319H50.5742V18.2219H53.2045V10.6896H50.7336V7.97961H63.8454C64.4033 7.97961 64.8417 8.418 64.8417 8.97595V28.8229H66.5952L65.3598 31.4133L61.1353 31.4532L61.0955 11.8454C61.1353 11.2077 60.6571 10.6896 60.0194 10.6896Z" fill="#262626"></path><path d="M43.9984 18.7401H42.4043V16.03H46.6287C47.1867 16.03 47.6251 16.4684 47.6251 17.0264L47.6649 28.7831H49.6177L48.4221 31.4134H44.9948C44.4368 31.4134 43.9984 30.975 43.9984 30.4171V18.7401Z" fill="#262626"></path><path d="M47.6649 7.97961H42.4043V10.8092H47.6649V7.97961Z" fill="#262626"></path><path d="M42.5234 36.6341V39.1449H43.3205V36.6341H42.5234ZM42.5234 35.7573V36.3153H43.3205V35.7573H42.5234Z" fill="#262626"></path><path d="M52.1275 36.2356V35.5979H48.8994V39.105H49.7762V37.75H52.008V37.1123H49.7762V36.2356H52.1275Z" fill="#262626"></path><path d="M58.2254 38.4673V35.5979H57.3486V39.105H60.1782V38.4673H58.2254Z" fill="#262626"></path><path d="M68.2285 35.6377L67.1923 37.1123L66.1561 35.6377H65.0801L66.7539 37.8296V39.1448H67.6307V37.8296L69.3045 35.6377H68.2285Z" fill="#262626"></path><path d="M74.167 35.6377V36.2753H75.4821V39.1448H76.3589V36.2753H77.6342V35.6377H74.167Z" fill="#262626"></path><path d="M83.8113 38.5072V37.6703H86.1228V37.0326H83.8113V36.2356H86.2025V35.5979H82.9346V39.105H86.2822V38.4673H83.8113V38.5072Z" fill="#262626"></path><path d="M93.6548 37.1123L95.3685 35.6377H94.2526L92.5389 37.1521V35.6377H91.6621V39.1448H92.5389V38.1086L93.057 37.6702L94.412 39.1846H95.5677L93.6548 37.1123Z" fill="#262626"></path><path d="M109.995 37.1522C109.875 37.1123 109.756 37.0725 109.517 37.0326C109.278 36.9928 108.64 36.9131 108.401 36.8333C108.241 36.7935 108.122 36.7138 108.122 36.5145C108.122 36.1558 108.6 36.116 108.6 36.116C108.72 36.116 108.839 36.116 108.879 36.116C109.198 36.116 109.596 36.1558 109.796 36.4348C109.835 36.4747 109.835 36.4747 109.875 36.5544L110.712 36.3551C110.633 36.2355 110.593 36.1558 110.473 36.0363C110.314 35.8769 110.114 35.7972 110.035 35.7573C109.796 35.6377 109.477 35.5182 108.879 35.5182C108.241 35.5182 107.883 35.6776 107.683 35.837C107.564 35.9167 107.245 36.1558 107.245 36.6341C107.245 37.1522 107.644 37.3913 107.803 37.471C108.082 37.5906 108.441 37.6703 109.078 37.75C109.397 37.7898 109.636 37.8297 109.716 37.9094C109.796 37.9492 109.835 38.0289 109.835 38.1485C109.835 38.3079 109.716 38.4275 109.676 38.4673C109.437 38.6267 108.999 38.6267 108.959 38.6267C108.52 38.6267 108.002 38.5072 107.803 38.0688L107.006 38.2681C107.046 38.3079 107.046 38.3478 107.086 38.4275C107.125 38.5072 107.245 38.7065 107.444 38.826C107.564 38.9057 107.644 38.9456 107.683 38.9854C107.922 39.105 108.281 39.2644 108.919 39.2644C109.038 39.2644 109.158 39.2644 109.278 39.2644C109.477 39.2644 109.676 39.2245 109.835 39.1448C110.553 38.9057 110.672 38.4275 110.672 38.1087C110.712 37.4311 110.194 37.2319 109.995 37.1522Z" fill="#262626"></path><path d="M119.441 36.1159C119.241 35.7971 118.923 35.6775 118.564 35.6377C118.484 35.6377 118.365 35.6377 118.285 35.6377H116.133V39.1448H117.01V37.8296H118.245C118.564 37.8296 118.923 37.8296 119.162 37.6702C119.281 37.5905 119.361 37.5108 119.401 37.4709C119.48 37.3912 119.52 37.3115 119.52 37.2717C119.6 37.0724 119.6 36.8333 119.6 36.7536C119.6 36.3949 119.52 36.1956 119.441 36.1159ZM118.484 37.1521C118.365 37.192 118.205 37.192 118.046 37.192H116.97V36.2355H118.205C118.325 36.2355 118.365 36.2355 118.404 36.2753C118.683 36.3551 118.683 36.6739 118.683 36.7536C118.723 36.7934 118.723 37.0326 118.484 37.1521Z" fill="#262626"></path><path d="M127.092 35.6377H126.136L124.462 39.1448H125.418L125.697 38.4673H127.491L127.77 39.1448H128.766L127.092 35.6377ZM126.016 37.8296L126.654 36.4746L127.252 37.8296H126.016Z" fill="#262626"></path><path d="M136.776 37.6703C137.135 37.5906 137.454 37.5109 137.613 37.1522C137.693 36.9529 137.693 36.7935 137.693 36.6739C137.693 36.1957 137.454 35.837 136.975 35.6776C136.816 35.6378 136.696 35.5979 136.378 35.5979H133.986V39.105H134.863V37.7101H135.859L136.776 39.105H137.812L136.776 37.6703ZM136.497 37.0725C136.417 37.0725 136.298 37.0725 136.298 37.0725H134.903V36.2356H136.298C136.457 36.2356 136.656 36.2356 136.776 36.395C136.856 36.4747 136.856 36.6341 136.856 36.6739C136.816 36.9529 136.617 37.0725 136.497 37.0725Z" fill="#262626"></path><path d="M145.066 37.1123L146.779 35.6377H145.664L143.95 37.1521V35.6377H143.033V39.1448H143.91V38.1086L144.428 37.6702L145.783 39.1846H146.939L145.066 37.1123Z" fill="#262626"></path><path d="M88.1552 7.97955L79.7462 15.472H85.4452L93.097 7.97955H88.1552ZM86.2024 18.5805H80.7425L87.119 25.4751H92.5789L86.2024 18.5805ZM75.8007 28.8627C75.442 28.8627 75.2029 28.5438 75.2826 28.1852L80.3041 9.215C80.4635 8.57735 79.9853 7.9397 79.3476 7.9397H69.7031V10.6099H75.0435C75.5616 10.6099 75.9601 11.128 75.8007 11.6062L70.8987 30.0981C70.7393 30.7358 71.2176 31.3734 71.8552 31.3734H91.184L92.6586 28.8228H75.8007V28.8627Z" fill="#262626"></path><path d="M110.513 27.2287H119.44V25.1564H110.513V23.1239H119.44V21.1312H110.513V19.4175H119.44V16.2292V8.97595C119.44 8.418 119.002 7.97961 118.444 7.97961H98.0791V18.3813C98.0791 18.9393 98.5175 19.3776 99.0754 19.3776H100.789L98.0791 23.1239H106.608V25.1564H98.1189V27.2287L106.608 27.1889V28.8627H98.1189V31.4133H119.401V28.8627H110.473V27.2287H110.513ZM101.945 14.9141H113.303L114.419 12.762H101.945V10.3708H115.535V16.9466H101.945V14.9141ZM106.608 21.0913H103.22L104.535 19.3776H106.608V21.0913Z" fill="#262626"></path><path d="M127.611 7.97961H123.785L126.615 19.4175H130.441L127.611 7.97961ZM142.596 7.97961L139.766 19.4574H143.632L146.462 7.97961H142.596ZM137.016 19.5769V7.97961H133.071V19.5769L123.586 31.4532H128.408L135.143 23.1239L141.918 31.493L146.781 31.4532L137.016 19.5769Z" fill="#262626"></path><path d="M34.1941 30.4169C33.5963 32.5291 32.6 34.442 31.3247 36.1159C29.4117 38.5071 22.836 38.5071 18.8905 37.4709C14.6262 36.3151 11.5575 33.645 11.3184 33.4457C12.9922 34.7609 15.1044 35.5181 17.4159 35.5181C22.9555 35.5181 27.4191 30.9748 27.4191 25.3954C27.4191 23.7215 27.0205 22.1672 26.3032 20.7724C26.2633 20.6927 26.343 20.613 26.3829 20.6528C29.5313 21.1709 35.7883 24.12 34.1941 30.4169Z" fill="url(#paint0_radial_18299_39179)"></path><path d="M34.7921 23.3629C34.7921 23.4824 34.6725 23.5223 34.5928 23.4027C33.1182 20.2543 30.5278 19.2978 27.4192 18.5805C25.0679 18.0624 23.5136 17.2653 22.8361 16.9067C22.6767 16.8269 22.5571 16.7074 22.3977 16.6277C17.4957 13.6387 17.416 8.49761 17.416 8.49761V1.04505C17.416 0.965342 17.5356 0.925488 17.5754 0.965342L29.1727 12.3634L30.0495 13.2003C32.6001 15.9103 34.3537 19.4573 34.7921 23.3629Z" fill="#5580FF"></path><path d="M31.3247 36.1159C28.1364 40.3005 23.1149 43.0504 17.4557 43.0504C7.81124 43.0504 0 35.1595 0 25.4353C0 20.6927 1.83324 16.4284 4.86209 13.2402L5.73887 12.3634L13.311 4.91082C13.3907 4.83112 13.5103 4.91082 13.4704 4.99053C13.3508 5.50862 13.1516 6.70422 13.2711 8.29835C13.4305 10.1715 14.0284 12.6822 15.7819 15.4719C16.8579 17.2255 18.4122 19.0587 20.5643 20.9717C20.8034 21.2108 21.0824 21.4101 21.3614 21.6492C22.3178 22.6455 22.8758 23.9607 22.8758 25.4353C22.8758 28.4243 20.4447 30.8553 17.4956 30.8553C16.2203 30.8553 15.0645 30.4169 14.1479 29.6597C14.0682 29.58 14.1479 29.4604 14.2276 29.5003C14.4269 29.5401 14.6261 29.58 14.8254 29.58C15.8616 29.58 16.7384 28.7431 16.7384 27.667C16.7384 27.0294 16.4195 26.4316 15.9413 26.1128C14.666 25.0766 13.59 24.0802 12.6733 23.0839C11.398 21.689 10.4416 20.334 9.76405 19.0189C8.36919 20.7724 7.49241 22.9644 7.49241 25.3954C7.49241 28.6634 9.00684 31.5727 11.398 33.4059C11.6372 33.6052 14.7059 36.2753 18.9702 37.4311C22.8359 38.547 29.4117 38.5071 31.3247 36.1159Z" fill="#5580FF"></path><defs><radialGradient id="paint0_radial_18299_39179" cx="0" cy="0" r="1" gradientUnits="userSpaceOnUse" gradientTransform="translate(11.2815 33.5573) scale(23.7873 23.7873)"><stop stop-color="#5580FF" stop-opacity="0"></stop><stop offset="0.9727" stop-color="#5580FF"></stop></radialGradient></defs></svg>