<svg width="106" height="26" viewBox="0 0 106 26" fill="none" xmlns="http://www.w3.org/2000/svg" class="!h-[47px] !w-auto max-w-fit " style="max-height: 26px;"><path d="M90.4603 0.829144C90.9291 0.662165 91.8732 0.334629 92.3421 0.174072C93.7164 0.816299 92.9779 3.50723 94.7504 3.71274C98.1927 3.76412 101.648 3.55861 105.084 3.82835V5.26693C104.769 5.36327 104.146 5.55594 103.838 5.65227C95.8422 5.633 87.8465 5.66512 79.8507 5.63943C79.8507 5.15776 79.8379 4.19442 79.8379 3.71274C83.6591 3.68063 87.4804 3.71917 91.3016 3.70632C91.3594 2.66591 90.5117 1.85029 90.4603 0.829144Z" fill="#1F1F1F"></path><path d="M10.9268 1.83095C12.3847 1.74746 13.8554 1.79884 15.3196 1.79884C15.2618 2.5374 15.2811 3.26954 15.371 3.98884C18.6335 3.99526 21.9025 3.98242 25.165 3.98884C25.2742 4.93933 25.2228 5.8513 25.0044 6.7183C24.0282 6.62197 23.0649 6.6605 22.1272 6.8339C20.7272 11.2396 18.7427 15.5489 15.538 18.9527C18.4858 20.7767 21.774 21.9776 25.1971 22.5364C25.1907 23.4483 25.1842 24.3667 25.1714 25.2787C20.9134 25.0732 16.6041 23.7309 13.2131 21.0978C9.57812 23.5703 5.28804 25.1631 0.875942 25.2723C1.23559 24.4245 0.0731577 22.3308 1.66588 22.3758C4.83206 21.8235 7.88906 20.6803 10.5928 18.9399C7.70282 15.6581 5.5642 11.7405 4.3825 7.53393C3.99074 5.85772 1.98699 7.17429 0.888784 6.57701C0.843829 5.72927 0.863096 4.87511 0.882363 4.02095C4.25406 3.84755 7.66428 4.19435 11.0103 3.86039C10.991 3.35303 10.9461 2.33831 10.9268 1.83095ZM8.16522 6.69904C8.40284 10.5396 10.5094 14.1425 13.181 16.827C15.66 13.9819 17.8243 10.4882 18.0684 6.6605C14.7673 6.75684 11.4663 6.67335 8.16522 6.69904Z" fill="#1F1F1F"></path><path d="M40.0645 1.57415C41.1884 1.86315 42.9416 0.899807 43.6031 2.19068C44.3288 7.34135 44.6243 12.5434 44.5729 17.7519L44.3224 18.0408C43.2627 17.7454 41.9012 18.3941 41.0149 17.7904C41.0342 12.37 40.636 6.94316 40.0645 1.57415Z" fill="#1F1F1F"></path><path d="M33.7966 3.16685C34.9976 3.16685 36.1986 3.15401 37.3995 3.19254C37.5537 9.30654 37.1169 15.504 37.6179 21.5667C37.8234 21.6887 38.2216 21.9327 38.4271 22.0548C41.4777 22.119 44.5347 22.074 47.5917 22.074C47.6045 23.0438 47.5981 24.0135 47.5724 24.9833C44.0402 24.9705 40.5015 24.9962 36.9692 24.9705C35.4022 24.9384 33.7324 23.9493 33.6168 22.2474C33.5526 15.9857 33.6553 9.72399 33.5654 3.46227L33.7966 3.16685Z" fill="#1F1F1F"></path><path d="M47.4053 6.40369C48.3815 6.42295 49.3641 6.41653 50.3467 6.44864C51.6247 11.4837 51.432 16.8656 51.9908 22.0483C50.7898 22.1575 49.5888 22.1254 48.3879 22.0997C48.42 16.8399 47.431 11.6378 47.4053 6.40369Z" fill="#1F1F1F"></path><path d="M27.7529 22.8383C27.5731 17.572 28.5364 11.9333 28.3952 6.48718C29.4227 6.53856 30.4503 6.54498 31.4778 6.50003C32.0687 11.8112 31.1696 17.328 30.9063 22.7034C29.8787 22.941 28.7998 22.7676 27.7529 22.8383Z" fill="#1F1F1F"></path><path d="M81.88 7.92575C88.7775 7.83584 95.6878 7.84868 102.592 7.91933C102.585 8.33677 102.585 9.17809 102.585 9.60196C95.6814 9.66618 88.7775 9.67903 81.8735 9.59554C81.8735 9.17809 81.8735 8.3432 81.88 7.92575Z" fill="#1F1F1F"></path><path d="M55.5615 11.1497C63.1526 11.0148 70.7566 11.1112 78.3477 11.0983C78.3413 11.6956 78.3285 12.8773 78.3285 13.4681C70.7438 13.4425 63.1527 13.5131 55.5744 13.436C55.5679 12.8645 55.5615 11.7213 55.5615 11.1497Z" fill="#1F1F1F"></path><path d="M81.9507 11.8625C88.7968 11.7855 95.6558 11.7983 102.508 11.8561C102.47 12.2928 102.393 13.1791 102.348 13.6222C95.6173 13.6158 88.8803 13.6222 82.1498 13.6158C82.0984 13.1791 81.9956 12.2992 81.9507 11.8625Z" fill="#1F1F1F"></path><path d="M82.6441 15.9792C89.0728 15.9599 95.4951 15.915 101.924 16.0049C102.271 18.9591 101.93 22.0868 102.084 25.1117C100.941 25.3814 99.676 25.4328 99.5668 23.9557C94.6153 24.1034 89.638 23.885 84.6928 24.0649L84.5066 25.1181C83.9735 25.1245 82.9075 25.1374 82.368 25.1438C82.3808 22.1831 82.4322 19.216 82.3423 16.2489L82.6441 15.9792ZM84.6415 17.8417C84.6222 19.2546 84.6158 20.6675 84.635 22.0804C89.6958 22.0932 94.7565 22.1125 99.8109 22.0675C99.8237 20.6675 99.8173 19.261 99.8044 17.8545C94.7501 17.8224 89.6958 17.8417 84.6415 17.8417Z" fill="#1F1F1F"></path></svg>