<svg width="138" height="41" viewBox="0 0 138 41" fill="none" xmlns="http://www.w3.org/2000/svg" class="!h-[47px] !w-auto max-w-fit " style="max-height: 41px;"><path d="M48.4233 29.8275V12.5579H52.2447V19.4902H60.1568V12.5579H64.0027V29.8275H60.1568V22.6502H52.2447V29.8275H48.4233ZM73.5143 30.0969C71.3587 30.0969 69.6765 29.517 68.4682 28.3577C67.2599 27.198 66.6555 25.6222 66.6555 23.63C66.6555 22.3402 66.9085 21.213 67.4149 20.2496C67.9373 19.2862 68.6561 18.5349 69.5705 17.996C70.5013 17.441 71.5872 17.1631 72.8284 17.1631C74.0532 17.1631 75.074 17.4245 75.8904 17.947C76.7233 18.4694 77.3437 19.2043 77.7521 20.1516C78.1766 21.0825 78.389 22.1687 78.389 23.4096V24.2669H69.693V22.4297H75.6944L75.278 22.7727C75.278 21.7438 75.0656 20.968 74.6411 20.4456C74.2327 19.9067 73.6368 19.6372 72.8529 19.6372C71.9875 19.6372 71.3177 19.9556 70.8443 20.5925C70.3869 21.2294 70.1584 22.1438 70.1584 23.3361V23.728C70.1584 24.9363 70.4523 25.8346 71.0402 26.4225C71.6446 27.0104 72.51 27.3044 73.6368 27.3044C74.3062 27.3044 74.9351 27.2229 75.523 27.0594C76.1356 26.8758 76.7146 26.5945 77.2377 26.2266L78.2665 28.6762C77.6461 29.1335 76.9273 29.4845 76.1109 29.7295C75.3106 29.9744 74.4452 30.0969 73.5143 30.0969ZM80.398 35.388L79.5407 32.4975C80.3081 32.3505 80.9534 32.1791 81.4758 31.9831C82.0148 31.7871 82.4557 31.5257 82.7986 31.1992C83.1416 30.8892 83.4191 30.4808 83.6315 29.9744L84.2439 28.5292L84.1459 29.9499L78.7568 17.4081H82.6516L86.2035 26.398H85.4442L89.0451 17.4081H92.7194L87.1099 30.3174C86.7015 31.2482 86.2606 32.0156 85.7871 32.62C85.3297 33.2404 84.8318 33.7303 84.2929 34.0897C83.7416 34.4549 83.1389 34.7356 82.5047 34.9226C81.8678 35.1186 81.1654 35.2736 80.398 35.388ZM102.783 30.0969C100.806 30.0969 99.1408 29.7375 97.7855 29.0191C96.4462 28.2842 95.4339 27.2554 94.748 25.9326C94.0621 24.5934 93.7192 23.0341 93.7192 21.2539C93.7192 19.4248 94.0866 17.841 94.8215 16.5017C95.5724 15.1625 96.6502 14.1256 98.0549 13.3908C99.4592 12.6559 101.141 12.2885 103.101 12.2885C104.358 12.2885 105.461 12.4519 106.408 12.7784C107.371 13.0884 108.212 13.5377 108.931 14.1256L107.706 17.0896C107.183 16.7142 106.694 16.4198 106.237 16.2078C105.789 15.9823 105.31 15.8254 104.816 15.7424C104.326 15.6444 103.762 15.5954 103.126 15.5954C101.329 15.5954 99.9736 16.0853 99.0592 17.0651C98.1609 18.0285 97.712 19.4332 97.712 21.2784C97.712 23.1076 98.1364 24.4954 98.9858 25.4427C99.8347 26.39 101.166 26.8635 102.979 26.8635C103.583 26.8635 104.203 26.8061 104.84 26.692C105.483 26.5761 106.114 26.404 106.726 26.1776L106.041 27.6473V22.9931H102.244V20.2741H109.201V28.7496C108.335 29.1745 107.33 29.509 106.188 29.754C105.061 29.9825 103.925 30.0969 102.783 30.0969ZM118.487 30.0969C116.331 30.0969 114.649 29.517 113.441 28.3577C112.233 27.198 111.628 25.6222 111.628 23.63C111.628 22.3402 111.881 21.213 112.388 20.2496C112.91 19.2862 113.629 18.5349 114.543 17.996C115.474 17.441 116.56 17.1631 117.801 17.1631C119.026 17.1631 120.047 17.4245 120.863 17.947C121.696 18.4694 122.316 19.2043 122.725 20.1516C123.149 21.0825 123.362 22.1687 123.362 23.4096V24.2669H114.666V22.4297H120.667L120.251 22.7727C120.251 21.7438 120.038 20.968 119.614 20.4456C119.206 19.9067 118.61 19.6372 117.826 19.6372C116.96 19.6372 116.291 19.9556 115.817 20.5925C115.36 21.2294 115.131 22.1438 115.131 23.3361V23.728C115.131 24.9363 115.425 25.8346 116.013 26.4225C116.617 27.0104 117.483 27.3044 118.61 27.3044C119.279 27.3044 119.908 27.2229 120.496 27.0594C121.108 26.8758 121.687 26.5945 122.21 26.2266L123.239 28.6762C122.619 29.1335 121.9 29.4845 121.084 29.7295C120.283 29.9744 119.418 30.0969 118.487 30.0969ZM125.709 29.8275V20.6415C125.708 20.1104 125.692 19.5794 125.66 19.0493C125.627 18.5009 125.578 17.9535 125.513 17.4081H129.065L129.334 19.7107H129.04C129.448 18.8943 130.028 18.2654 130.779 17.8245C131.53 17.3836 132.404 17.1631 133.4 17.1631C134.854 17.1631 135.94 17.588 136.658 18.4369C137.393 19.2698 137.761 20.568 137.761 22.3317V29.8275H134.062V22.5032C134.062 21.6049 133.898 20.9684 133.572 20.5925C133.245 20.2171 132.755 20.0291 132.102 20.0291C131.285 20.0291 130.632 20.2905 130.143 20.813C129.653 21.3194 129.408 22.0053 129.408 22.8706V29.8275H125.709Z" fill="#1F1F1F"></path><path d="M38.2071 20.6932C38.2071 20.3346 38.1895 19.9916 38.1608 19.6472C38.0502 18.2068 37.7034 16.7945 37.1343 15.4668C37.5085 16.5554 37.503 17.7386 37.1186 18.8236C36.7341 19.9086 35.9934 20.8314 35.0173 21.4415C34.9274 21.4993 34.8346 21.5526 34.7394 21.6011L30.8262 23.8363L24.9683 34.0055C28.4871 33.9892 31.856 32.5792 34.3373 30.0841C36.8187 27.5891 38.2102 24.212 38.2071 20.6932Z" fill="url(#paint0_linear_9620_20225)"></path><path d="M30.8024 17.552L24.9234 7.40266L24.8714 7.31463C23.9897 5.80653 22.8195 4.48688 21.4278 3.43103C20.036 2.37518 18.45 1.6038 16.7601 1.16095C15.0702 0.718101 13.3097 0.612449 11.579 0.850028C9.84826 1.08761 8.18131 1.66376 6.67328 2.5456C6.36823 2.72549 6.07773 2.91533 5.79258 3.11283C4.60494 3.93537 3.55999 4.94683 2.69922 6.10706C3.45068 5.23505 4.47538 4.64331 5.60626 4.42833C6.73713 4.21334 7.90749 4.38779 8.92651 4.92322C9.0222 4.97336 9.11597 5.02733 9.20668 5.08474L13.2397 7.41682L14.8671 8.35532L29.1321 16.5905C30.2088 17.2167 30.9999 17.9538 31.4845 18.7435L30.8024 17.552Z" fill="url(#paint1_linear_9620_20225)"></path><path d="M37.1215 15.4668C36.9577 15.0834 36.778 14.707 36.5829 14.3385C35.4403 12.2424 33.7547 10.4924 31.7029 9.27197C29.6511 8.05158 27.3087 7.40579 24.9214 7.40234L30.8008 17.5516L31.4897 18.7412L31.5398 18.8254C31.6578 19.0271 31.7586 19.2384 31.8411 19.457C32.163 20.2935 32.1508 21.2219 31.807 22.0497C31.7333 22.2279 31.647 22.4005 31.5487 22.5664L31.4216 22.7999L30.8241 23.8367L34.7369 21.6011C34.8303 21.551 34.9252 21.4989 35.0152 21.4415C35.9914 20.8315 36.7321 19.9087 37.1166 18.8237C37.501 17.7387 37.5065 16.5554 37.1322 15.4668H37.1215Z" fill="url(#paint2_linear_9620_20225)"></path><path d="M31.4141 18.6084L30.8025 17.552L24.9235 7.40234H12.0195L12.1719 7.41306C12.5221 7.45057 12.8685 7.521 13.2053 7.62319C13.7853 7.80095 14.3427 8.04537 14.8664 8.35156L29.1314 16.5867C30.2081 17.2125 30.9996 17.9501 31.4838 18.7397L31.4141 18.6084Z" fill="#0076D0"></path><path d="M13.2399 7.41387L9.20694 5.08141C9.11586 5.02388 9.02252 4.96999 8.92715 4.91989C7.9077 4.38497 6.7371 4.21118 5.60622 4.42686C4.47533 4.64254 3.45087 5.23497 2.69986 6.10756C2.45044 6.44348 2.21746 6.79129 2.00173 7.14978C0.763783 9.19762 0.101365 11.5416 0.0843217 13.9344C0.0672788 16.3273 0.696243 18.6805 1.90489 20.7457L7.74485 30.7339L8.12491 31.3849C7.8995 30.7347 7.77256 30.0545 7.74829 29.3667V12.473C7.74716 12.1578 7.7639 11.8428 7.79843 11.5296C7.86641 10.8079 8.06455 10.1045 8.38327 9.45353C9.12809 7.98072 10.4895 7.24317 12.1725 7.41349C12.5231 7.451 12.8691 7.52143 13.2059 7.62362C13.7856 7.80203 14.343 8.04642 14.867 8.35199L13.2403 7.41349L13.2399 7.41387Z" fill="url(#paint3_linear_9620_20225)"></path><path d="M8.40516 38.1701C7.99442 37.4544 7.76352 36.6497 7.73229 35.825V35.502L7.74301 30.7334L1.90497 20.7437L1.86899 20.8064C0.999924 22.3219 0.437926 23.9938 0.215091 25.7265C-0.00774424 27.4592 0.112948 29.2189 0.570277 30.905C1.0276 32.591 1.81261 34.1705 2.88045 35.5532C3.9483 36.9358 5.27806 38.0945 6.79379 38.9632C7.09655 39.1378 7.4073 39.2982 7.72502 39.4439C9.02618 40.0637 10.4201 40.4661 11.8514 40.635C11.1336 40.496 10.4542 40.2038 9.85945 39.7784C9.26474 39.3531 8.76871 38.8045 8.40516 38.1701Z" fill="url(#paint4_linear_9620_20225)"></path><path d="M7.79822 11.529C7.86548 10.8188 8.05859 10.1262 8.36852 9.48364L1.91042 20.7437L1.86182 20.8264L7.74464 30.7334L8.127 31.3844C7.90093 30.7343 7.77334 30.0541 7.74847 29.3662V12.4729C7.74847 12.1575 7.76493 11.8425 7.79861 11.529H7.79822Z" fill="#0076D0"></path><path d="M29.6132 24.5295C29.4573 24.6336 29.2981 24.7329 29.136 24.8272L14.871 33.062C14.4874 33.2862 14.0859 33.4782 13.6707 33.6362C13.126 33.8497 12.5519 33.9787 11.9682 34.0185C10.1739 34.1242 8.69573 33.2002 8.12505 31.3848C7.76527 30.2404 7.7446 29.4328 7.7446 29.4328L7.73389 35.5021V35.8251C7.77718 36.9751 8.20863 38.0765 8.95794 38.95C9.70725 39.8234 10.7303 40.4174 11.8603 40.6351C14.4498 40.9402 17.072 40.4774 19.4006 39.3042C21.7292 38.131 23.6616 36.2992 24.9575 34.0365L24.9755 34.0059L30.8334 23.8367L31.5744 22.5507L31.558 22.5664C31.0701 23.362 30.4042 24.0339 29.6132 24.5295Z" fill="url(#paint5_linear_9620_20225)"></path><g><path d="M29.6151 24.5275C29.459 24.6314 29.2998 24.7307 29.1379 24.8253L14.8729 33.0605C14.4884 33.2838 14.0865 33.4758 13.6711 33.6346C13.1651 33.8309 12.6342 33.9554 12.0938 34.0043H24.9828L31.4416 22.7802L31.5599 22.5632C31.0719 23.3593 30.4063 24.0316 29.6151 24.5275Z" fill="#0076D0"></path></g><defs><linearGradient id="paint0_linear_9620_20225" x1="14.3176" y1="34.9946" x2="39.6742" y2="18.7278" gradientUnits="userSpaceOnUse"><stop stop-color="#1859BF"></stop><stop offset="1" stop-color="#2FCCF7"></stop></linearGradient><linearGradient id="paint1_linear_9620_20225" x1="31.9005" y1="18.1349" x2="6.25532" y2="0.836251" gradientUnits="userSpaceOnUse"><stop stop-color="#1859BF"></stop><stop offset="1" stop-color="#2FCCF7"></stop></linearGradient><linearGradient id="paint2_linear_9620_20225" x1="36.2369" y1="20.4096" x2="20.0502" y2="7.65189" gradientUnits="userSpaceOnUse"><stop stop-color="#8E5AE9"></stop><stop offset="1" stop-color="#D2CEFE"></stop></linearGradient><linearGradient id="paint3_linear_9620_20225" x1="0.47648" y1="26.6056" x2="12.7198" y2="7.01161" gradientUnits="userSpaceOnUse"><stop stop-color="#D2CEFE"></stop><stop offset="1" stop-color="#8E5AE9"></stop></linearGradient><linearGradient id="paint4_linear_9620_20225" x1="6.66251" y1="10.5943" x2="8.09781" y2="42.649" gradientUnits="userSpaceOnUse"><stop stop-color="#1859BF"></stop><stop offset="1" stop-color="#2FCCF7"></stop></linearGradient><linearGradient id="paint5_linear_9620_20225" x1="31.499" y1="31.9571" x2="7.73197" y2="31.1265" gradientUnits="userSpaceOnUse"><stop stop-color="#D2CEFE"></stop><stop offset="1" stop-color="#8E5AE9"></stop></linearGradient></defs></svg>