<svg width="99" height="32" viewBox="0 0 99 32" fill="none" xmlns="http://www.w3.org/2000/svg" class="!h-[47px] !w-auto max-w-fit " style="max-height: 32px;"><path d="M0.921875 0.532309C1.59145 0.503391 2.26102 0.501166 2.92836 0.52786C3.45112 1.40653 3.94273 2.30522 4.41209 3.21282C4.14071 3.21504 3.87154 3.21726 3.60238 3.21949C3.59793 3.43081 3.59571 3.64214 3.59126 3.85569C4.03838 3.86904 4.48773 3.88239 4.93485 3.88906C5.54213 4.92789 6.38744 5.89332 6.60766 7.10567C6.72111 8.52044 6.62768 9.94411 6.68552 11.3611C6.70999 13.1318 6.66772 14.9047 6.83901 16.6687C6.87905 20.4837 6.89462 24.2987 6.93466 28.1137C5.96701 28.1093 4.99713 28.1115 4.02948 28.1293C4.03171 28.2894 4.03838 28.6098 4.04283 28.7699C6.24729 28.7944 8.45176 28.7877 10.6562 28.7699C10.6518 28.5519 10.6451 28.3362 10.6362 28.1182C9.66188 28.1048 8.68756 28.1026 7.71101 28.1159C7.64872 27.5665 7.61313 27.0126 7.61536 26.4587C7.6198 22.6748 7.55307 18.891 7.4107 15.1094C7.39513 12.747 7.38623 10.3846 7.30393 8.02215C8.43397 9.16554 9.03458 10.696 9.99111 11.9706C9.97776 16.4507 10.109 20.9286 10.2313 25.4043C11.199 25.3998 12.1667 25.3932 13.1343 25.4043C13.121 27.4308 13.1921 29.4529 13.2967 31.4749C9.37937 31.5216 5.45983 31.486 1.54251 31.4927C1.50914 29.4706 1.63149 27.4352 1.35787 25.4221C2.30773 25.3865 3.25759 25.3798 4.20522 25.431C4.57448 24.8704 4.28975 24.183 4.30087 23.5669C4.24303 19.416 4.2853 15.2562 4.05395 11.1097C4.04283 9.60376 4.0762 8.09779 3.98944 6.59403C3.03069 6.59181 2.06971 6.58959 1.11096 6.60293C1.06869 4.57643 1.04867 2.55214 0.921875 0.532309Z" fill="#095DC2"></path><path d="M34.3315 2.13786C35.5773 1.23472 37.0654 0.627433 38.6092 0.527331C41.0495 0.50731 43.492 0.511759 45.9322 0.522882C50.4124 0.832085 54.1362 4.99188 54.1762 9.43195C54.4009 7.66126 54.8925 5.88834 55.9602 4.4313C57.5797 2.03998 60.4359 0.654127 63.2877 0.562923C66.5888 0.549576 69.8877 0.578494 73.1889 0.547351C73.4803 1.29478 73.1933 2.08447 73.3023 2.85414C73.3935 4.17104 73.3401 5.49016 73.3757 6.80706C70.2325 6.83375 67.0871 6.81595 63.9417 6.81595C63.2009 6.83597 62.429 6.96499 61.8062 7.39432C60.7562 8.13285 60.189 9.59879 60.7051 10.8178C61.1077 11.7966 61.9508 12.6975 63.0586 12.7931C64.5378 12.9044 66.026 12.7954 67.5053 12.9133C71.456 12.8977 75.1019 15.8073 76.2275 19.5534C76.866 21.9936 76.7191 24.772 75.3578 26.9542C74.0231 29.2121 71.6785 30.8893 69.0669 31.2697C67.7344 31.5411 66.3731 31.3876 65.0272 31.4343C64.9516 30.4823 64.9294 29.528 64.9494 28.5737C66.4598 28.5047 68.0258 28.7716 69.4807 28.2422C71.4805 27.6661 73.0087 25.9221 73.6004 23.9623C74.0231 22.5942 73.8406 21.1105 73.3312 19.7914C72.3814 17.3912 69.8811 15.6494 67.2851 15.7006C66.0972 15.7006 64.9093 15.7095 63.7215 15.6983C61.8373 15.7918 59.9954 14.7752 58.8699 13.3003C57.8466 11.7899 57.2949 9.80121 57.9845 8.03942C58.6274 5.73263 60.9097 4.00198 63.3077 4.05092C65.8525 4.04424 68.3996 4.04869 70.9466 4.05092C70.9644 3.84626 70.9822 3.63939 71.0022 3.43473C68.5019 3.42139 66.0016 3.43696 63.5035 3.42361C60.5649 3.33241 57.7665 5.55244 57.2148 8.44205C57.0725 9.60768 57.0302 10.8378 57.4595 11.9523C58.2225 14.0589 60.1156 15.7562 62.3401 16.1432C64.3799 16.5125 66.4732 16.1099 68.5219 16.3946C70.0346 16.775 71.4782 17.6581 72.2924 19.0173C73.2267 20.3431 73.4002 22.0604 73.1021 23.6197C72.6305 25.6507 70.9355 27.2901 68.9468 27.8396C67.6299 28.0576 66.2885 27.8818 64.9605 27.9819C64.9049 27.0098 64.916 26.0333 64.9894 25.0634C66.2107 25.0167 67.4519 25.1769 68.6598 24.9522C69.9144 24.3872 70.7508 22.9146 70.406 21.551C70.1903 20.4743 69.3316 19.5845 68.3061 19.2442C66.2685 18.9105 64.1975 19.1685 62.1465 18.9906C58.1335 18.3544 54.6923 14.8085 54.3786 10.731C54.3742 10.364 54.3675 9.99697 54.363 9.62993C53.4466 9.66997 52.5301 9.69221 51.6114 9.71446C51.6492 6.46893 48.9731 3.42139 45.7009 3.23231C43.4809 3.20561 41.2586 3.21229 39.0386 3.23453C36.0021 3.35465 33.4084 6.08187 33.3305 9.09828C33.2905 13.2536 33.4151 17.409 33.4084 21.5643C33.0413 24.9166 35.5928 28.4802 39.0363 28.8006C41.1785 28.8495 43.3251 28.8161 45.4695 28.8161C47.2491 28.8295 49.0621 28.0932 50.2033 26.7029C51.3311 25.5528 51.8004 23.9067 51.8294 22.3295C52.6168 22.2895 53.4043 22.2962 54.1918 22.2739L54.4765 22.2695C54.4431 24.5273 53.6979 26.7718 52.212 28.4914C50.9707 29.8817 49.3446 30.9939 47.4916 31.3498C46.5462 31.5901 45.5697 31.4254 44.6109 31.4521C42.8269 31.4744 41.045 31.4455 39.261 31.4432C38.8962 31.4321 38.5002 31.4722 38.1888 31.2364C37.9819 31.2386 37.7773 31.243 37.5726 31.2497L37.606 31.0406C36.5894 31.0317 35.7352 30.3799 34.9299 29.8349C34.0913 29.2877 33.464 28.498 32.8144 27.7528C32.5297 27.4036 32.2783 27.0121 32.1983 26.5605L31.9669 26.5516C31.9914 26.447 32.0448 26.2357 32.0692 26.1289L31.7534 26.1023C31.7801 25.9955 31.8357 25.7819 31.8624 25.6751H31.6154C31.4753 25.2369 31.373 24.7854 31.3352 24.3271L31.1394 24.3494C31.1283 24.0735 31.1149 23.8021 31.0949 23.5285C30.8836 23.2104 30.957 22.8145 30.9192 22.4541C30.7968 20.7479 30.957 19.0328 30.7679 17.3311C30.7234 15.4091 30.7457 13.4827 30.6901 11.5608C30.7345 10.1571 30.5521 8.72679 30.9058 7.34983C31.4731 5.31443 32.612 3.40137 34.3315 2.13786Z" fill="#095DC2"></path><path d="M86.419 0.552002C89.4932 0.569798 92.5697 0.534206 95.6439 0.574246C95.6662 2.65859 95.684 4.74071 95.7129 6.82505C92.3873 6.81838 89.0594 6.80058 85.7361 6.84285C84.7929 6.9652 83.8608 7.38118 83.3625 8.23093C82.2125 9.92599 83.3848 12.5642 85.4335 12.7978C87.4623 12.9201 89.5177 12.6999 91.5286 13.0759C94.3804 13.6809 96.9141 15.6629 98.1064 18.3345C98.9295 19.9406 99.1097 21.7936 98.9206 23.5688C98.4179 27.4327 95.1924 30.8206 91.2884 31.2811C90.0048 31.5169 88.6946 31.4012 87.3978 31.4323C87.38 30.4802 87.3622 29.5259 87.3377 28.5739C88.9571 28.5227 90.65 28.7852 92.1871 28.1267C93.7019 27.6084 94.8742 26.3827 95.5883 24.9769C96.4203 23.2195 96.3313 21.104 95.5171 19.3578C94.5673 17.4069 92.5875 15.9922 90.4319 15.7408C88.579 15.5873 86.7104 15.8187 84.8618 15.6273C83.2046 15.2091 81.603 14.1903 80.8222 12.6265C79.968 11.1294 79.8211 9.24752 80.4774 7.64811C81.2871 5.54375 83.4515 3.97771 85.7294 4.04889C87.9605 4.04667 90.1895 4.04445 92.4206 4.05557C92.8277 4.08671 93.2081 3.94212 93.5774 3.78641C93.3216 3.51947 93.0124 3.39934 92.6475 3.42604C90.4253 3.42381 88.203 3.43716 85.9807 3.42159C84.408 3.3949 82.8042 3.91765 81.6319 4.98318C80.2371 6.15548 79.4608 7.96399 79.4274 9.7725C79.3918 12.998 82.0901 15.9677 85.3023 16.2524C87.0174 16.3815 88.7436 16.2168 90.4609 16.3347C93.0546 16.664 95.2413 18.864 95.5794 21.4577C95.9887 23.9002 94.5272 26.425 92.3161 27.4683C90.799 28.2647 89.0416 27.8042 87.4133 28.0044C87.2843 27.0679 87.222 26.1247 87.2287 25.1793C88.7725 25.0836 90.6388 25.5196 91.8868 24.3629C93.3305 23.1417 93.0502 20.5791 91.4307 19.6336C90.2985 18.7594 88.8259 19.2711 87.5312 19.1087C86.1565 18.9685 84.7284 19.1932 83.3981 18.7305C79.968 17.7406 77.2808 14.6352 76.7558 11.1094C76.6757 9.53003 76.609 7.87279 77.2585 6.39128C78.1127 4.31138 79.6877 2.47396 81.7542 1.53078C83.1712 0.75443 84.8285 0.58092 86.419 0.552002Z" fill="#095DC2"></path><path d="M36.467 4.79185C37.0832 4.32026 37.844 4.1423 38.5736 3.92653C40.7225 3.81975 42.8758 3.90428 45.0268 3.87314C46.7397 3.85089 48.4526 4.61612 49.5537 5.93079C50.3589 7.01856 51.0241 8.31099 50.9729 9.70129C50.1276 9.67682 49.2801 9.70129 48.4348 9.68127L48.3569 9.61231C48.2635 8.59572 47.7741 7.57913 46.8621 7.0586C45.7743 6.4135 44.4618 6.6315 43.2584 6.60036C41.7835 6.6404 40.2954 6.48468 38.8317 6.73605C37.4525 6.99187 36.4448 8.3844 36.5093 9.76803C36.5204 13.8922 36.734 18.0097 36.6984 22.1339C35.862 22.1095 35.0233 22.0984 34.1869 22.1028H34.0801C34.0179 18.2856 34.0134 14.4684 33.9445 10.6556C33.6441 8.44223 34.5428 6.01532 36.467 4.79185Z" fill="#095DC2"></path><path d="M24.9827 6.76755C25.8502 6.74531 26.7178 6.74753 27.5831 6.72974C27.6387 9.00094 27.5319 11.2788 27.7433 13.5433C27.7722 17.4518 27.8033 21.3602 27.879 25.2686C28.8644 25.4644 29.8743 25.3598 30.8709 25.4243C30.8954 27.4464 30.8931 29.4684 30.922 31.4927C27.0047 31.4927 23.0852 31.5172 19.1679 31.4771C19.179 29.4551 19.1412 27.4353 19.1367 25.4132C20.1066 25.3887 21.0765 25.391 22.0463 25.4043C22.0886 20.922 21.8884 16.4396 21.8306 11.9595C22.7982 10.7138 23.2565 9.09881 24.4755 8.04886C24.4755 8.07778 24.4755 8.13339 24.4755 8.1623C24.3976 11.5902 24.52 15.0204 24.5089 18.4506C24.7224 21.6649 24.6579 24.8904 24.6913 28.1115C23.7214 28.1159 22.7537 28.1182 21.7839 28.1204C21.7861 28.3406 21.7883 28.5608 21.7928 28.7811C23.9683 28.7877 26.1439 28.7833 28.3194 28.7855C28.3194 28.6187 28.3238 28.2872 28.3238 28.1204C27.3429 28.1182 26.3618 28.1204 25.3809 28.1115C25.2807 20.9954 25.1562 13.8815 24.9827 6.76755Z" fill="#095DC2"></path><path d="M48.5411 22.3722C49.422 22.2899 50.3051 22.2787 51.1904 22.3032C51.3328 25.2551 48.7702 28.1202 45.776 28.1269C45.7538 27.2149 45.7449 26.3028 45.7582 25.3908C47.2931 25.2996 48.6278 23.936 48.5411 22.3722Z" fill="#095DC2"></path><path d="M2.92773 0.527684C5.25677 0.512113 7.58803 0.483195 9.91707 0.532133C11.8924 3.75986 13.8322 7.00984 15.872 10.1975C17.7962 6.99871 19.6381 3.75319 21.5178 0.527684C24.4941 0.496541 27.4727 0.485419 30.4491 0.527684C30.4179 2.58311 30.5514 4.64076 30.4624 6.69396C29.5037 6.69841 28.5427 6.69618 27.5817 6.72955C26.7164 6.74735 25.8488 6.74512 24.9813 6.76737C24.9613 5.80417 24.9568 4.84096 24.9502 3.87776C25.9156 3.88888 26.881 3.89111 27.8464 3.87554C27.842 3.65309 27.8375 3.43064 27.8331 3.20819C26.3049 3.22599 24.7789 3.16815 23.2529 3.22154C22.977 3.19707 22.9036 3.53741 22.7524 3.70203C20.4767 7.58153 18.2633 11.5011 15.9365 15.3517C13.5029 11.2942 10.9403 7.31459 8.54234 3.23488C7.16538 3.19707 5.78842 3.21041 4.41147 3.21264C3.9421 2.30505 3.45049 1.40636 2.92773 0.527684Z" fill="#42A0D4"></path><path d="M23.4271 3.89301C23.7496 3.89301 24.0744 3.89524 24.3969 3.89524C24.3992 5.28109 24.348 6.66695 24.4748 8.04835C23.2558 9.09831 22.7975 10.7133 21.8299 11.959C20.3328 14.2613 19.0737 16.7105 17.6367 19.0529C17.0828 19.9071 16.7136 20.9237 16.0151 21.6578C14.6492 19.3955 13.2211 17.1687 11.862 14.902C11.2391 13.9254 10.6941 12.8955 9.99117 11.9701C9.03464 10.6955 8.43403 9.16505 7.30399 8.02166C7.27952 6.64025 7.30844 5.25662 7.18164 3.87744C7.49084 3.88189 7.80005 3.88856 8.10925 3.89301C10.5918 7.95715 13.1232 11.9924 15.6013 16.0565C15.6881 16.2701 15.8393 16.3835 16.0573 16.4013C16.3421 16.0565 16.569 15.6694 16.7981 15.2846C19.0048 11.4852 21.2137 7.68799 23.4271 3.89301Z" fill="#42A0D4"></path><path d="M4.93555 3.88856C5.44495 3.89524 5.95436 3.89079 6.46154 3.87744C6.67287 4.56036 6.61281 5.27887 6.63283 5.98403C6.68844 7.77697 6.67065 9.56768 6.68622 11.3606C6.62838 9.94362 6.72181 8.51995 6.60836 7.10517C6.38814 5.89283 5.54283 4.9274 4.93555 3.88856Z" fill="#42A0D4"></path><path d="M48.4355 9.6814C49.2809 9.70142 50.1284 9.67695 50.9737 9.70142C50.9559 10.916 50.9737 12.1283 51.0938 13.3362C51.1472 16.3237 51.1294 19.3134 51.1917 22.3031C50.3063 22.2787 49.4232 22.2898 48.5423 22.3721C48.5023 18.1433 48.4533 13.9124 48.4355 9.6814Z" fill="#42A0D4"></path><path d="M51.6113 9.71478C52.53 9.69253 53.4465 9.67029 54.363 9.63025C54.3675 9.99729 54.3741 10.3643 54.3786 10.7314C54.0961 13.2161 54.3519 15.7231 54.3185 18.219C54.3052 19.5314 54.2874 20.8483 54.4987 22.1474L54.1917 22.2742C53.4043 22.2965 52.6168 22.2898 51.8293 22.3298C51.8115 20.3634 51.8115 18.3947 51.7737 16.4283C51.5713 14.1949 51.6491 11.9526 51.6113 9.71478Z" fill="#42A0D4"></path><path d="M34.1881 22.103C35.0245 22.0986 35.8631 22.1097 36.6995 22.1342C36.635 23.8693 38.1855 25.4308 39.9139 25.4108C41.8625 25.4064 43.8112 25.4442 45.7598 25.3908C45.7465 26.3028 45.7554 27.2149 45.7776 28.1269C43.6777 28.0802 41.5778 28.1447 39.4779 28.098C36.4682 27.9579 34.0524 25.0571 34.1881 22.103Z" fill="#42A0D4"></path><path d="M54.9235 25.0371C58.278 25.0772 61.6348 25.0238 64.9893 25.0638C64.9159 26.0337 64.9048 27.0102 64.9604 27.9823C62.5134 28.1892 60.0532 27.9868 57.6018 28.098C57.6218 28.2115 57.6663 28.4339 57.6885 28.5451C60.1088 28.5963 62.529 28.5585 64.9493 28.574C64.9292 29.5283 64.9515 30.4827 65.0271 31.4347C61.6615 31.477 58.2958 31.4014 54.9324 31.4703C54.948 30.2402 54.8812 29.0145 54.7567 27.791C54.8011 26.8768 54.5787 25.9091 54.9235 25.0371Z" fill="#42A0D4"></path><path d="M77.1942 25.2441C77.2521 25.2018 77.37 25.1128 77.4278 25.0706C80.6933 25.0283 83.9633 25.0861 87.2311 25.0394V25.1796C87.2244 26.125 87.2867 27.0682 87.4157 28.0047C84.931 28.1915 82.4351 27.958 79.9504 28.127C80.0171 28.2271 80.1483 28.4273 80.2128 28.5274C82.5841 28.6386 84.9644 28.5497 87.3401 28.5741C87.3646 29.5262 87.3824 30.4805 87.4002 31.4326C84.0101 31.4682 80.6199 31.4371 77.2298 31.4504C77.2676 29.3816 77.0785 27.3106 77.1942 25.2441Z" fill="#42A0D4"></path></svg>