<svg id="SvgjsSvg1006" width="1508" height="740" xmlns="http://www.w3.org/2000/svg" version="1.1" xmlns:xlink="http://www.w3.org/1999/xlink" xmlns:svgjs="http://svgjs.com/svgjs"><defs id="SvgjsDefs1007"><pattern patternUnits="userSpaceOnUse" id="pattern_mark_0" width="300" height="300"><text x="150" y="100" fill="rgba(229,229,229,0.8)" font-size="18" transform="rotate(-45, 150, 150)" style="dominant-baseline: middle; text-anchor: middle;"></text></pattern><pattern patternUnits="userSpaceOnUse" id="pattern_mark_1" width="300" height="300"><text x="150" y="200" fill="rgba(229,229,229,0.8)" font-size="18" transform="rotate(-45, 150, 150)" style="dominant-baseline: middle; text-anchor: middle;"></text></pattern><marker id="SvgjsMarker1083" markerWidth="13" markerHeight="9" refX="9.5" refY="4.5" viewBox="0 0 13 9" orient="auto" markerUnits="userSpaceOnUse" stroke-dasharray="0,0"><path id="SvgjsPath1084" d="M0,0 L13,4.5 L0,9 L0,0" fill="#2c769b" stroke="#2c769b" stroke-width="1"></path></marker><marker id="SvgjsMarker1087" markerWidth="13" markerHeight="9" refX="9.5" refY="4.5" viewBox="0 0 13 9" orient="auto" markerUnits="userSpaceOnUse" stroke-dasharray="0,0"><path id="SvgjsPath1088" d="M0,0 L13,4.5 L0,9 L0,0" fill="#2c769b" stroke="#2c769b" stroke-width="1"></path></marker><marker id="SvgjsMarker1091" markerWidth="13" markerHeight="9" refX="3.5" refY="4.5" viewBox="0 0 13 9" orient="auto" markerUnits="userSpaceOnUse" stroke-dasharray="0,0"><path id="SvgjsPath1092" d="M13,0 L0,4.5 L13,9 L13,0" fill="#2c769b" stroke="#2c769b" stroke-width="1"></path></marker><marker id="SvgjsMarker1093" markerWidth="13" markerHeight="9" refX="9.5" refY="4.5" viewBox="0 0 13 9" orient="auto" markerUnits="userSpaceOnUse" stroke-dasharray="0,0"><path id="SvgjsPath1094" d="M0,0 L13,4.5 L0,9 L0,0" fill="#2c769b" stroke="#2c769b" stroke-width="1"></path></marker><marker id="SvgjsMarker1127" markerWidth="16" markerHeight="16" refX="11" refY="8" viewBox="0 0 16 16" orient="auto" markerUnits="userSpaceOnUse" stroke-dasharray="0,0"><path id="SvgjsPath1128" d="M0,0 L10,8 L0,16" fill="none" stroke="#2c769b" stroke-width="1.5"></path></marker><marker id="SvgjsMarker1155" markerWidth="16" markerHeight="16" refX="11" refY="8" viewBox="0 0 16 16" orient="auto" markerUnits="userSpaceOnUse" stroke-dasharray="0,0"><path id="SvgjsPath1156" d="M0,0 L10,8 L0,16" fill="none" stroke="#2c769b" stroke-width="1.5"></path></marker><marker id="SvgjsMarker1173" markerWidth="16" markerHeight="16" refX="11" refY="8" viewBox="0 0 16 16" orient="auto" markerUnits="userSpaceOnUse" stroke-dasharray="0,0"><path id="SvgjsPath1174" d="M0,0 L10,8 L0,16" fill="none" stroke="#2c769b" stroke-width="1.5"></path></marker><marker id="SvgjsMarker1177" markerWidth="13" markerHeight="9" refX="9.5" refY="4.5" viewBox="0 0 13 9" orient="auto" markerUnits="userSpaceOnUse" stroke-dasharray="0,0"><path id="SvgjsPath1178" d="M0,0 L13,4.5 L0,9 L0,0" fill="#2c769b" stroke="#2c769b" stroke-width="1"></path></marker><marker id="SvgjsMarker1189" markerWidth="16" markerHeight="16" refX="11" refY="8" viewBox="0 0 16 16" orient="auto" markerUnits="userSpaceOnUse" stroke-dasharray="0,0"><path id="SvgjsPath1190" d="M0,0 L10,8 L0,16" fill="none" stroke="#2c769b" stroke-width="1.5"></path></marker><marker id="SvgjsMarker1193" markerWidth="13" markerHeight="9" refX="9.5" refY="4.5" viewBox="0 0 13 9" orient="auto" markerUnits="userSpaceOnUse" stroke-dasharray="0,0"><path id="SvgjsPath1194" d="M0,0 L13,4.5 L0,9 L0,0" fill="#2c769b" stroke="#2c769b" stroke-width="1"></path></marker><marker id="SvgjsMarker1197" markerWidth="13" markerHeight="9" refX="9.5" refY="4.5" viewBox="0 0 13 9" orient="auto" markerUnits="userSpaceOnUse" stroke-dasharray="0,0"><path id="SvgjsPath1198" d="M0,0 L13,4.5 L0,9 L0,0" fill="#2c769b" stroke="#2c769b" stroke-width="1"></path></marker><marker id="SvgjsMarker1201" markerWidth="13" markerHeight="9" refX="3.5" refY="4.5" viewBox="0 0 13 9" orient="auto" markerUnits="userSpaceOnUse" stroke-dasharray="0,0"><path id="SvgjsPath1202" d="M13,0 L0,4.5 L13,9 L13,0" fill="#2c769b" stroke="#2c769b" stroke-width="1"></path></marker><marker id="SvgjsMarker1203" markerWidth="13" markerHeight="9" refX="9.5" refY="4.5" viewBox="0 0 13 9" orient="auto" markerUnits="userSpaceOnUse" stroke-dasharray="0,0"><path id="SvgjsPath1204" d="M0,0 L13,4.5 L0,9 L0,0" fill="#2c769b" stroke="#2c769b" stroke-width="1"></path></marker><marker id="SvgjsMarker1207" markerWidth="13" markerHeight="9" refX="3.5" refY="4.5" viewBox="0 0 13 9" orient="auto" markerUnits="userSpaceOnUse" stroke-dasharray="0,0"><path id="SvgjsPath1208" d="M13,0 L0,4.5 L13,9 L13,0" fill="#2c769b" stroke="#2c769b" stroke-width="1"></path></marker><marker id="SvgjsMarker1209" markerWidth="13" markerHeight="9" refX="9.5" refY="4.5" viewBox="0 0 13 9" orient="auto" markerUnits="userSpaceOnUse" stroke-dasharray="0,0"><path id="SvgjsPath1210" d="M0,0 L13,4.5 L0,9 L0,0" fill="#2c769b" stroke="#2c769b" stroke-width="1"></path></marker><marker id="SvgjsMarker1213" markerWidth="13" markerHeight="9" refX="9.5" refY="4.5" viewBox="0 0 13 9" orient="auto" markerUnits="userSpaceOnUse" stroke-dasharray="0,0"><path id="SvgjsPath1214" d="M0,0 L13,4.5 L0,9 L0,0" fill="#2c769b" stroke="#2c769b" stroke-width="1"></path></marker><marker id="SvgjsMarker1217" markerWidth="13" markerHeight="9" refX="3.5" refY="4.5" viewBox="0 0 13 9" orient="auto" markerUnits="userSpaceOnUse" stroke-dasharray="0,0"><path id="SvgjsPath1218" d="M13,0 L0,4.5 L13,9 L13,0" fill="#2c769b" stroke="#2c769b" stroke-width="1"></path></marker><marker id="SvgjsMarker1221" markerWidth="13" markerHeight="9" refX="3.5" refY="4.5" viewBox="0 0 13 9" orient="auto" markerUnits="userSpaceOnUse" stroke-dasharray="0,0"><path id="SvgjsPath1222" d="M13,0 L0,4.5 L13,9 L13,0" fill="#2c769b" stroke="#2c769b" stroke-width="1"></path></marker><marker id="SvgjsMarker1251" markerWidth="16" markerHeight="16" refX="11" refY="8" viewBox="0 0 16 16" orient="auto" markerUnits="userSpaceOnUse" stroke-dasharray="0,0"><path id="SvgjsPath1252" d="M0,0 L10,8 L0,16" fill="none" stroke="#2c769b" stroke-width="1.5"></path></marker><marker id="SvgjsMarker1273" markerWidth="16" markerHeight="16" refX="11" refY="8" viewBox="0 0 16 16" orient="auto" markerUnits="userSpaceOnUse" stroke-dasharray="0,0"><path id="SvgjsPath1274" d="M0,0 L10,8 L0,16" fill="none" stroke="#2c769b" stroke-width="1.5"></path></marker><marker id="SvgjsMarker1277" markerWidth="16" markerHeight="16" refX="11" refY="8" viewBox="0 0 16 16" orient="auto" markerUnits="userSpaceOnUse" stroke-dasharray="0,0"><path id="SvgjsPath1278" d="M0,0 L10,8 L0,16" fill="none" stroke="#2c769b" stroke-width="1.5"></path></marker></defs><rect id="svgbackgroundid" width="1508" height="740" fill="#ffffff"></rect><rect id="SvgjsRect1009" width="1508" height="740" fill="url(#pattern_mark_0)"></rect><rect id="SvgjsRect1010" width="1508" height="740" fill="url(#pattern_mark_1)"></rect><g id="SvgjsG1011" transform="translate(25,150)"><path id="SvgjsPath1012" d="M 0 0L 1458 0L 0 0M 0 345L 1458 345L 0 345Z" stroke-dasharray="10,6,3,6" stroke="rgba(54,169,204,1)" stroke-width="1.5" fill-opacity="1" fill="#b4d8d5"></path><path id="SvgjsPath1013" d="M 0 0L 1458 0L 1458 345L 0 345L 0 0Z" stroke="none" fill="none"></path><g id="SvgjsG1014"><text id="SvgjsText1015" font-family="微软雅黑" text-anchor="middle" font-size="13px" width="1438px" fill="#15475b" font-weight="400" align="middle" lineHeight="125%" anchor="middle" family="微软雅黑" size="13px" weight="400" font-style="" opacity="1" y="159.875" transform="rotate(0)"></text></g></g><g id="SvgjsG1016" transform="translate(39,186)"><path id="SvgjsPath1017" d="M 0 0L 155 0L 155 54L 0 54Z" stroke="rgba(54,169,204,1)" stroke-width="1.5" fill-opacity="1" fill="#94e0e1"></path><g id="SvgjsG1018"><text id="SvgjsText1019" font-family="微软雅黑" text-anchor="middle" font-size="26px" width="135px" fill="#15475b" font-weight="700" align="middle" lineHeight="125%" anchor="middle" family="微软雅黑" size="26px" weight="700" font-style="" opacity="1" y="4.25" transform="rotate(0)"><tspan id="SvgjsTspan1020" dy="32" x="77.5"><tspan id="SvgjsTspan1021" style="text-decoration:;">线下活动</tspan></tspan></text></g></g><g id="SvgjsG1022" transform="translate(39,303.5)"><path id="SvgjsPath1023" d="M 0 0L 155 0L 155 54L 0 54Z" stroke="rgba(54,169,204,1)" stroke-width="1.5" fill-opacity="1" fill="#94e0e1"></path><g id="SvgjsG1024"><text id="SvgjsText1025" font-family="微软雅黑" text-anchor="middle" font-size="26px" width="135px" fill="#15475b" font-weight="700" align="middle" lineHeight="125%" anchor="middle" family="微软雅黑" size="26px" weight="700" font-style="" opacity="1" y="4.25" transform="rotate(0)"><tspan id="SvgjsTspan1026" dy="32" x="77.5"><tspan id="SvgjsTspan1027" style="text-decoration:;">公域吸引</tspan></tspan></text></g></g><g id="SvgjsG1028" transform="translate(39,408.5)"><path id="SvgjsPath1029" d="M 0 0L 155 0L 155 54L 0 54Z" stroke="rgba(54,169,204,1)" stroke-width="1.5" fill-opacity="1" fill="#94e0e1"></path><g id="SvgjsG1030"><text id="SvgjsText1031" font-family="微软雅黑" text-anchor="middle" font-size="26px" width="135px" fill="#15475b" font-weight="700" align="middle" lineHeight="125%" anchor="middle" family="微软雅黑" size="26px" weight="700" font-style="" opacity="1" y="4.25" transform="rotate(0)"><tspan id="SvgjsTspan1032" dy="32" x="77.5"><tspan id="SvgjsTspan1033" style="text-decoration:;">朋友推荐</tspan></tspan></text></g></g><g id="SvgjsG1034" transform="translate(316,291)"><path id="SvgjsPath1035" d="M 0 0L 148 0L 148 70L 0 70Z" stroke="rgba(54,169,204,1)" stroke-width="1.5" fill-opacity="1" fill="#94e0e1"></path><g id="SvgjsG1036"><text id="SvgjsText1037" font-family="微软雅黑" text-anchor="middle" font-size="26px" width="128px" fill="#15475b" font-weight="700" align="middle" lineHeight="125%" anchor="middle" family="微软雅黑" size="26px" weight="700" font-style="" opacity="1" y="12.25" transform="rotate(0)"><tspan id="SvgjsTspan1038" dy="32" x="74"><tspan id="SvgjsTspan1039" style="text-decoration:;">添加账号</tspan></tspan></text></g></g><g id="SvgjsG1040" transform="translate(567.5,292)"><path id="SvgjsPath1041" d="M 0 0L 148 0L 148 70L 0 70Z" stroke="rgba(54,169,204,1)" stroke-width="1.5" fill-opacity="1" fill="#94e0e1"></path><g id="SvgjsG1042"><text id="SvgjsText1043" font-family="微软雅黑" text-anchor="middle" font-size="26px" width="128px" fill="#f0895d" font-weight="700" align="middle" lineHeight="125%" anchor="middle" family="微软雅黑" size="26px" weight="700" font-style="" opacity="1" y="12.25" transform="rotate(0)"><tspan id="SvgjsTspan1044" dy="32" x="74"><tspan id="SvgjsTspan1045" style="text-decoration:;">兴趣社群</tspan></tspan></text></g></g><g id="SvgjsG1046" transform="translate(795,186)"><path id="SvgjsPath1047" d="M 0 0L 155 0L 155 54L 0 54Z" stroke="rgba(54,169,204,1)" stroke-width="1.5" fill-opacity="1" fill="#94e0e1"></path><g id="SvgjsG1048"><text id="SvgjsText1049" font-family="思源黑体" text-anchor="middle" font-size="26px" width="135px" fill="#b83b5f" font-weight="700" align="middle" lineHeight="125%" anchor="middle" family="思源黑体" size="26px" weight="700" font-style="" opacity="1" y="4.25" transform="rotate(0)"><tspan id="SvgjsTspan1050" dy="32" x="77.5"><tspan id="SvgjsTspan1051" style="text-decoration:;">销售社群</tspan></tspan></text></g></g><g id="SvgjsG1052" transform="translate(795,300)"><path id="SvgjsPath1053" d="M 0 0L 155 0L 155 54L 0 54Z" stroke="rgba(54,169,204,1)" stroke-width="1.5" fill-opacity="1" fill="#94e0e1"></path><g id="SvgjsG1054"><text id="SvgjsText1055" font-family="微软雅黑" text-anchor="middle" font-size="26px" width="135px" fill="#b83b5f" font-weight="700" align="middle" lineHeight="125%" anchor="middle" family="微软雅黑" size="26px" weight="700" font-style="" opacity="1" y="4.25" transform="rotate(0)"><tspan id="SvgjsTspan1056" dy="32" x="77.5"><tspan id="SvgjsTspan1057" style="text-decoration:;">裂变社群</tspan></tspan></text></g></g><g id="SvgjsG1058" transform="translate(795,405)"><path id="SvgjsPath1059" d="M 0 0L 155 0L 155 54L 0 54Z" stroke="rgba(54,169,204,1)" stroke-width="1.5" fill-opacity="1" fill="#94e0e1"></path><g id="SvgjsG1060"><text id="SvgjsText1061" font-family="微软雅黑" text-anchor="middle" font-size="21px" width="135px" fill="#b83b5f" font-weight="700" align="middle" lineHeight="125%" anchor="middle" family="微软雅黑" size="21px" weight="700" font-style="" opacity="1" y="8.375" transform="rotate(0)"><tspan id="SvgjsTspan1062" dy="26" x="77.5"><tspan id="SvgjsTspan1063" style="text-decoration:;">解决方案社群</tspan></tspan></text></g></g><g id="SvgjsG1064" transform="translate(1050.5,293)"><path id="SvgjsPath1065" d="M 0 0L 155 0L 155 70L 0 70Z" stroke="rgba(54,169,204,1)" stroke-width="1.5" fill-opacity="1" fill="#94e0e1"></path><g id="SvgjsG1066"><text id="SvgjsText1067" font-family="微软雅黑" text-anchor="middle" font-size="26px" width="135px" fill="#f0895d" font-weight="700" align="middle" lineHeight="125%" anchor="middle" family="微软雅黑" size="26px" weight="700" font-style="" opacity="1" y="12.25" transform="rotate(0)"><tspan id="SvgjsTspan1068" dy="32" x="77.5"><tspan id="SvgjsTspan1069" style="text-decoration:;">会员社群</tspan></tspan></text></g></g><g id="SvgjsG1070" transform="translate(1293.5,292)"><path id="SvgjsPath1071" d="M 0 0L 158 0L 158 70L 0 70Z" stroke="rgba(54,169,204,1)" stroke-width="1.5" fill-opacity="1" fill="#94e0e1"></path><g id="SvgjsG1072"><text id="SvgjsText1073" font-family="微软雅黑" text-anchor="middle" font-size="24px" width="138px" fill="#f0895d" font-weight="700" align="middle" lineHeight="125%" anchor="middle" family="微软雅黑" size="24px" weight="700" font-style="" opacity="1" y="14" transform="rotate(0)"><tspan id="SvgjsTspan1074" dy="30" x="79"><tspan id="SvgjsTspan1075" style="text-decoration:;">铁粉社群</tspan></tspan></text></g></g><g id="SvgjsG1076" transform="translate(161,200)"><path id="SvgjsPath1077" d="M 47.5 0L 57 0L 57 243L 47.5 243" stroke="rgba(54,169,204,1)" stroke-width="1.5" fill="none"></path><path id="SvgjsPath1078" d="M 0 0L 57 0L 57 243L 0 243Z" stroke="none" fill="none"></path><g id="SvgjsG1079"><text id="SvgjsText1080" font-family="微软雅黑" text-anchor="middle" font-size="13px" width="37px" fill="#15475b" font-weight="400" align="middle" lineHeight="125%" anchor="middle" family="微软雅黑" size="13px" weight="400" font-style="" opacity="1" y="108.875" transform="rotate(0)"></text></g></g><g id="SvgjsG1081"><path id="SvgjsPath1082" d="M218.75 326L267 326L267 326L313.3 326" stroke="#2c769b" stroke-width="1.5" fill="none" marker-end="url(#SvgjsMarker1083)"></path></g><g id="SvgjsG1085"><path id="SvgjsPath1086" d="M464.75 326L564.8 326" stroke="#2c769b" stroke-width="1.5" fill="none" marker-end="url(#SvgjsMarker1087)"></path></g><g id="SvgjsG1089"><path id="SvgjsPath1090" d="M952.7 327L1000.25 327L1000.25 327L1047.8 327" stroke="#2c769b" stroke-width="1.5" fill="none" marker-start="url(#SvgjsMarker1091)" marker-end="url(#SvgjsMarker1093)"></path></g><g id="SvgjsG1095" transform="translate(1050.5,93)"><path id="SvgjsPath1096" d="M 0 0L 155 0L 155 54L 0 54Z" stroke="rgba(54,169,204,1)" stroke-width="1.5" fill-opacity="1" fill="#b0e38f"></path><g id="SvgjsG1097"><text id="SvgjsText1098" font-family="微软雅黑" text-anchor="middle" font-size="26px" width="135px" fill="#15475b" font-weight="700" align="middle" lineHeight="125%" anchor="middle" family="微软雅黑" size="26px" weight="700" font-style="" opacity="1" y="4.25" transform="rotate(0)"><tspan id="SvgjsTspan1099" dy="32" x="77.5"><tspan id="SvgjsTspan1100" style="text-decoration:;">忠实顾客</tspan></tspan></text></g></g><g id="SvgjsG1101" transform="translate(1296.5,93)"><path id="SvgjsPath1102" d="M 0 0L 155 0L 155 54L 0 54Z" stroke="rgba(54,169,204,1)" stroke-width="1.5" fill-opacity="1" fill="#b0e38f"></path><g id="SvgjsG1103"><text id="SvgjsText1104" font-family="微软雅黑" text-anchor="middle" font-size="26px" width="135px" fill="#15475b" font-weight="700" align="middle" lineHeight="125%" anchor="middle" family="微软雅黑" size="26px" weight="700" font-style="" opacity="1" y="4.25" transform="rotate(0)"><tspan id="SvgjsTspan1105" dy="32" x="77.5"><tspan id="SvgjsTspan1106" style="text-decoration:;">合作伙伴</tspan></tspan></text></g></g><g id="SvgjsG1107" transform="translate(300,526)"><path id="SvgjsPath1108" d="M 0 0L 179 0L 179 36L 0 36Z" stroke="none" fill="none"></path><g id="SvgjsG1109"><text id="SvgjsText1110" font-family="微软雅黑" text-anchor="middle" font-size="24px" width="179px" fill="#4669ea" font-weight="400" align="middle" lineHeight="125%" anchor="middle" family="微软雅黑" size="24px" weight="400" font-style="" opacity="1" y="-3" transform="rotate(0)"><tspan id="SvgjsTspan1111" dy="30" x="89.5"><tspan id="SvgjsTspan1112" style="text-decoration:;font-weight: bold;">人设五件套</tspan></tspan></text></g></g><g id="SvgjsG1113" transform="translate(300,570)"><path id="SvgjsPath1114" d="M 0 0L 179 0L 179 41L 0 41Z" stroke="none" fill="none"></path><g id="SvgjsG1115"><text id="SvgjsText1116" font-family="微软雅黑" text-anchor="middle" font-size="24px" width="179px" fill="#4669ea" font-weight="400" align="middle" lineHeight="125%" anchor="middle" family="微软雅黑" size="24px" weight="400" font-style="" opacity="1" y="-0.5" transform="rotate(0)"><tspan id="SvgjsTspan1117" dy="30" x="89.5"><tspan id="SvgjsTspan1118" style="text-decoration:;font-weight: bold;">日常朋友圈</tspan></tspan></text></g></g><g id="SvgjsG1119" transform="translate(300,621)"><path id="SvgjsPath1120" d="M 0 0L 179 0L 179 41L 0 41Z" stroke="none" fill="none"></path><g id="SvgjsG1121"><text id="SvgjsText1122" font-family="微软雅黑" text-anchor="middle" font-size="24px" width="179px" fill="#4669ea" font-weight="400" align="middle" lineHeight="125%" anchor="middle" family="微软雅黑" size="24px" weight="400" font-style="" opacity="1" y="-0.5" transform="rotate(0)"><tspan id="SvgjsTspan1123" dy="30" x="89.5"><tspan id="SvgjsTspan1124" style="text-decoration:;font-weight: bold;">1对1关怀</tspan></tspan></text></g></g><g id="SvgjsG1125"><path id="SvgjsPath1126" d="M390 361.75L390 440.5L390 440.5L390 520" stroke-dasharray="8,5" stroke="#2c769b" stroke-width="1.5" fill="none" marker-end="url(#SvgjsMarker1127)"></path></g><g id="SvgjsG1129" transform="translate(552,527)"><path id="SvgjsPath1130" d="M 0 0L 179 0L 179 36L 0 36Z" stroke="none" fill="none"></path><g id="SvgjsG1131"><text id="SvgjsText1132" font-family="微软雅黑" text-anchor="middle" font-size="24px" width="179px" fill="#4669ea" font-weight="400" align="middle" lineHeight="125%" anchor="middle" family="微软雅黑" size="24px" weight="400" font-style="" opacity="1" y="-3" transform="rotate(0)"><tspan id="SvgjsTspan1133" dy="30" x="89.5"><tspan id="SvgjsTspan1134" style="text-decoration:;font-weight: bold;fill: rgb(231, 79, 76);">基础性长期社群</tspan></tspan></text></g></g><g id="SvgjsG1135" transform="translate(552,571)"><path id="SvgjsPath1136" d="M 0 0L 179 0L 179 46L 0 46Z" stroke="none" fill="none"></path><g id="SvgjsG1137"><text id="SvgjsText1138" font-family="微软雅黑" text-anchor="middle" font-size="22px" width="179px" fill="#4669ea" font-weight="400" align="middle" lineHeight="125%" anchor="middle" family="微软雅黑" size="22px" weight="400" font-style="" opacity="1" y="-10.25" transform="rotate(0)"><tspan id="SvgjsTspan1139" dy="27" x="89.5"><tspan id="SvgjsTspan1140" style="text-decoration:;font-weight: bold;">活动、服务</tspan></tspan><tspan id="SvgjsTspan1141" dy="27" x="89.5"><tspan id="SvgjsTspan1142" style="text-decoration:;font-weight: bold;">知识、产品体验</tspan></tspan></text></g></g><g id="SvgjsG1143" transform="translate(552,630)"><path id="SvgjsPath1144" d="M 0 0L 179 0L 179 69L 0 69Z" stroke="none" fill="none"></path><g id="SvgjsG1145"><text id="SvgjsText1146" font-family="微软雅黑" text-anchor="middle" font-size="21px" width="179px" fill="#569230" font-weight="400" align="middle" lineHeight="125%" anchor="middle" family="微软雅黑" size="21px" weight="400" font-style="" opacity="1" y="-10.625" transform="rotate(0)"><tspan id="SvgjsTspan1147" dy="26" x="89.5"><tspan id="SvgjsTspan1148" style="text-decoration:;font-weight: bold;">读书社群</tspan></tspan><tspan id="SvgjsTspan1149" dy="26" x="89.5"><tspan id="SvgjsTspan1150" style="text-decoration:;font-weight: bold;">运动社群</tspan></tspan><tspan id="SvgjsTspan1151" dy="26" x="89.5"><tspan id="SvgjsTspan1152" style="text-decoration:;font-weight: bold;">早起社群</tspan></tspan></text></g></g><g id="SvgjsG1153"><path id="SvgjsPath1154" d="M641.502286574739 362.7499965143759L642 526" stroke-dasharray="8,5" stroke="#2c769b" stroke-width="1.5" fill="none" marker-end="url(#SvgjsMarker1155)"></path></g><g id="SvgjsG1157" transform="translate(786,531)"><path id="SvgjsPath1158" d="M 0 0L 179 0L 179 46L 0 46Z" stroke="none" fill="none"></path><g id="SvgjsG1159"><text id="SvgjsText1160" font-family="微软雅黑" text-anchor="middle" font-size="20px" width="179px" fill="#4669ea" font-weight="400" align="middle" lineHeight="125%" anchor="middle" family="微软雅黑" size="20px" weight="400" font-style="" opacity="1" y="-7.5" transform="rotate(0)"><tspan id="SvgjsTspan1161" dy="25" x="89.5"><tspan id="SvgjsTspan1162" style="text-decoration:;font-weight: bold;fill: rgb(231, 79, 76);">三类短期社群</tspan></tspan><tspan id="SvgjsTspan1163" dy="25" x="89.5"><tspan id="SvgjsTspan1164" style="text-decoration:;font-weight: bold;fill: rgb(231, 79, 76);">不同的目的和任务</tspan></tspan></text></g></g><g id="SvgjsG1165" transform="translate(786,585)"><path id="SvgjsPath1166" d="M 0 0L 179 0L 179 36L 0 36Z" stroke="none" fill="none"></path><g id="SvgjsG1167"><text id="SvgjsText1168" font-family="微软雅黑" text-anchor="middle" font-size="24px" width="179px" fill="#4669ea" font-weight="400" align="middle" lineHeight="125%" anchor="middle" family="微软雅黑" size="24px" weight="400" font-style="" opacity="1" y="-3" transform="rotate(0)"><tspan id="SvgjsTspan1169" dy="30" x="89.5"><tspan id="SvgjsTspan1170" style="text-decoration:;font-weight: bold;">成长型社群</tspan></tspan></text></g></g><g id="SvgjsG1171"><path id="SvgjsPath1172" d="M872.5 459.75L872.5 493L872.5 493L872.5 527" stroke-dasharray="8,5" stroke="#2c769b" stroke-width="1.5" fill="none" marker-end="url(#SvgjsMarker1173)"></path></g><g id="SvgjsG1175"><path id="SvgjsPath1176" d="M662 360.75L662 476L1128 476L1128 365.7" stroke="#2c769b" stroke-width="1.5" fill="none" marker-end="url(#SvgjsMarker1177)"></path></g><g id="SvgjsG1179" transform="translate(1124,25)"><path id="SvgjsPath1180" d="M 0 0L 179 0L 179 51L 0 51Z" stroke="none" fill="none"></path><g id="SvgjsG1181"><text id="SvgjsText1182" font-family="微软雅黑" text-anchor="end" font-size="23px" width="179px" fill="#4669ea" font-weight="400" align="middle" lineHeight="125%" anchor="end" family="微软雅黑" size="23px" weight="400" font-style="" opacity="1" y="-9.375" transform="rotate(0)"><tspan id="SvgjsTspan1183" dy="28" x="179"><tspan id="SvgjsTspan1184" style="text-decoration:;font-weight: bold;">通过社群</tspan></tspan><tspan id="SvgjsTspan1185" dy="28" x="179"><tspan id="SvgjsTspan1186" style="text-decoration:;font-weight: bold;">发展事业</tspan></tspan></text></g></g><g id="SvgjsG1187"><path id="SvgjsPath1188" d="M1374 92.25L1374 49L1303 49" stroke-dasharray="8,5" stroke="#2c769b" stroke-width="1.5" fill="none" marker-end="url(#SvgjsMarker1189)"></path></g><g id="SvgjsG1191"><path id="SvgjsPath1192" d="M1128 292.25L1128 220L1128 220L1128 149.7" stroke="#2c769b" stroke-width="1.5" fill="none" marker-end="url(#SvgjsMarker1193)"></path></g><g id="SvgjsG1195"><path id="SvgjsPath1196" d="M1372.5 291.25L1372.5 219.5L1372.5 219.5L1372.5 149.7" stroke="#2c769b" stroke-width="1.5" fill="none" marker-end="url(#SvgjsMarker1197)"></path></g><g id="SvgjsG1199"><path id="SvgjsPath1200" d="M952.7 213L1052.9143503242951 213L1052.9143503242951 291.1032630078853" stroke="#2c769b" stroke-width="1.5" fill="none" marker-start="url(#SvgjsMarker1201)" marker-end="url(#SvgjsMarker1203)"></path></g><g id="SvgjsG1205"><path id="SvgjsPath1206" d="M952.7 432L1050.8767422935782 432L1050.8767422935782 363.90241190740164" stroke="#2c769b" stroke-width="1.5" fill="none" marker-start="url(#SvgjsMarker1207)" marker-end="url(#SvgjsMarker1209)"></path></g><g id="SvgjsG1211"><path id="SvgjsPath1212" d="M716.25 327L755.25 327L755.25 213L792.3 213" stroke="#2c769b" stroke-width="1.5" fill="none" marker-end="url(#SvgjsMarker1213)"></path></g><g id="SvgjsG1215"><path id="SvgjsPath1216" d="M792.3 327L755.25 327L755.25 327L716.25 327" stroke="#2c769b" stroke-width="1.5" fill="none" marker-start="url(#SvgjsMarker1217)"></path></g><g id="SvgjsG1219"><path id="SvgjsPath1220" d="M792.3 432L755.25 432L755.25 327L716.25 327" stroke="#2c769b" stroke-width="1.5" fill="none" marker-start="url(#SvgjsMarker1221)"></path></g><g id="SvgjsG1223" transform="translate(1054,535)"><path id="SvgjsPath1224" d="M 0 0L 179 0L 179 36L 0 36Z" stroke="none" fill="none"></path><g id="SvgjsG1225"><text id="SvgjsText1226" font-family="微软雅黑" text-anchor="middle" font-size="24px" width="179px" fill="#4669ea" font-weight="400" align="middle" lineHeight="125%" anchor="middle" family="微软雅黑" size="24px" weight="400" font-style="" opacity="1" y="-3" transform="rotate(0)"><tspan id="SvgjsTspan1227" dy="30" x="89.5"><tspan id="SvgjsTspan1228" style="text-decoration:;font-weight: bold;fill: rgb(231, 79, 76);">长期社群</tspan></tspan></text></g></g><g id="SvgjsG1229" transform="translate(1054,584)"><path id="SvgjsPath1230" d="M 0 0L 179 0L 179 36L 0 36Z" stroke="none" fill="none"></path><g id="SvgjsG1231"><text id="SvgjsText1232" font-family="微软雅黑" text-anchor="middle" font-size="21px" width="179px" fill="#4669ea" font-weight="400" align="middle" lineHeight="125%" anchor="middle" family="微软雅黑" size="21px" weight="400" font-style="" opacity="1" y="-14.125" transform="rotate(0)"><tspan id="SvgjsTspan1233" dy="26" x="89.5"><tspan id="SvgjsTspan1234" style="text-decoration:;font-weight: bold;">更有深度的服务和</tspan></tspan><tspan id="SvgjsTspan1235" dy="26" x="89.5"><tspan id="SvgjsTspan1236" style="text-decoration:;font-weight: bold;">体验</tspan></tspan></text></g></g><g id="SvgjsG1237" transform="translate(1054,633)"><path id="SvgjsPath1238" d="M 0 0L 179 0L 179 36L 0 36Z" stroke="none" fill="none"></path><g id="SvgjsG1239"><text id="SvgjsText1240" font-family="微软雅黑" text-anchor="middle" font-size="24px" width="179px" fill="#4669ea" font-weight="400" align="middle" lineHeight="125%" anchor="middle" family="微软雅黑" size="24px" weight="400" font-style="" opacity="1" y="-3" transform="rotate(0)"><tspan id="SvgjsTspan1241" dy="30" x="89.5"><tspan id="SvgjsTspan1242" style="text-decoration:;font-weight: bold;">行业型社群</tspan></tspan></text></g></g><g id="SvgjsG1243" transform="translate(1054,679)"><path id="SvgjsPath1244" d="M 0 0L 179 0L 179 36L 0 36Z" stroke="none" fill="none"></path><g id="SvgjsG1245"><text id="SvgjsText1246" font-family="微软雅黑" text-anchor="middle" font-size="24px" width="179px" fill="#4669ea" font-weight="400" align="middle" lineHeight="125%" anchor="middle" family="微软雅黑" size="24px" weight="400" font-style="" opacity="1" y="-3" transform="rotate(0)"><tspan id="SvgjsTspan1247" dy="30" x="89.5"><tspan id="SvgjsTspan1248" style="text-decoration:;font-weight: bold;">IP型社群</tspan></tspan></text></g></g><g id="SvgjsG1249"><path id="SvgjsPath1250" d="M1144 363.75L1144 445L1144 445L1144 527" stroke-dasharray="8,5" stroke="#2c769b" stroke-width="1.5" fill="none" marker-end="url(#SvgjsMarker1251)"></path></g><g id="SvgjsG1253" transform="translate(1284,633)"><path id="SvgjsPath1254" d="M 0 0L 179 0L 179 36L 0 36Z" stroke="none" fill="none"></path><g id="SvgjsG1255"><text id="SvgjsText1256" font-family="微软雅黑" text-anchor="middle" font-size="24px" width="179px" fill="#4669ea" font-weight="400" align="middle" lineHeight="125%" anchor="middle" family="微软雅黑" size="24px" weight="400" font-style="" opacity="1" y="-3" transform="rotate(0)"><tspan id="SvgjsTspan1257" dy="30" x="89.5"><tspan id="SvgjsTspan1258" style="text-decoration:;font-weight: bold;">能力培训</tspan></tspan></text></g></g><g id="SvgjsG1259" transform="translate(1284,584)"><path id="SvgjsPath1260" d="M 0 0L 179 0L 179 36L 0 36Z" stroke="none" fill="none"></path><g id="SvgjsG1261"><text id="SvgjsText1262" font-family="微软雅黑" text-anchor="middle" font-size="24px" width="179px" fill="#4669ea" font-weight="400" align="middle" lineHeight="125%" anchor="middle" family="微软雅黑" size="24px" weight="400" font-style="" opacity="1" y="-3" transform="rotate(0)"><tspan id="SvgjsTspan1263" dy="30" x="89.5"><tspan id="SvgjsTspan1264" style="text-decoration:;font-weight: bold;">兴趣转化为职业</tspan></tspan></text></g></g><g id="SvgjsG1265" transform="translate(1284,536)"><path id="SvgjsPath1266" d="M 0 0L 179 0L 179 36L 0 36Z" stroke="none" fill="none"></path><g id="SvgjsG1267"><text id="SvgjsText1268" font-family="微软雅黑" text-anchor="middle" font-size="24px" width="179px" fill="#e74f4c" font-weight="400" align="middle" lineHeight="125%" anchor="middle" family="微软雅黑" size="24px" weight="400" font-style="" opacity="1" y="-3" transform="rotate(0)"><tspan id="SvgjsTspan1269" dy="30" x="89.5"><tspan id="SvgjsTspan1270" style="text-decoration:;font-weight: bold;">长期社群</tspan></tspan></text></g></g><g id="SvgjsG1271"><path id="SvgjsPath1272" d="M1206.25 328L1249.5 328L1249.5 328L1292 328" stroke="#2c769b" stroke-width="1.5" fill="none" marker-end="url(#SvgjsMarker1273)"></path></g><g id="SvgjsG1275"><path id="SvgjsPath1276" d="M1372.5 362.75L1372.5 444.5L1372.5 444.5L1372.5 527" stroke-dasharray="8,5" stroke="#2c769b" stroke-width="1.5" fill="none" marker-end="url(#SvgjsMarker1277)"></path></g></svg>