<svg xmlns="http://www.w3.org/2000/svg" width="1em" height="1em" fill="none" viewBox="0 0 16 17"><rect width="16" height="16" y="0.5" fill="#080B16" rx="4"></rect><path fill="#fff" d="M7.542 2.923c.055-.013.124.005.115.076.001 3.097.009 6.195.01 9.293.07.004.139.007.208.004.083-.131.014-.294.05-.438l.09-.017c.026.044.054.087.083.129.714.001 1.428.006 2.142.012.572.04 1.146.017 1.72.031h.027c-.373.093-.76.038-1.14.051-.216.01-.438-.021-.65.032-.017.056-.018.115-.026.172.226.003.452.002.677-.007.148-.027.298-.036.449-.029a.983.983 0 0 1-.34.543c-.08.051-.168.085-.255.122-.612.022-1.225.005-1.838.01-1.17-.004-2.34.008-3.51-.005-.142-.06-.304-.1-.41-.22a.9.9 0 0 1-.243-.394 3.779 3.779 0 0 1-.05-.185c.05.004.102.008.154.014.272.067.547.127.827.152.627.013 1.255.005 1.882.007-.002-.201-.003-.402.012-.602.006-2.73.01-5.46.018-8.189l-.128.018c.042-.012.085-.024.128-.034-.005-.182 0-.364-.002-.546m.531 9.219.006.152c.55.002 1.099.002 1.648 0 .102-.001.206.005.306-.019l.002-.164a60.8 60.8 0 0 0-1.962.03"></path><path fill="#F3DFB8" d="M7.47 3.528c-1.51 2.305-2.751 4.906-3.68 7.854l3.531.257c-.781-2.77-.532-5.372.148-8.111M7.757 4.065c.8 3.366.972 6.004.218 7.566l3.989.062c-1.446-1.54-2.632-4.495-4.207-7.628"></path><path fill="#453E31" d="M5.372 8.062c.061.01.123.022.183.036.223.055.434.145.652.214.125.046.25.097.365.165a2.223 2.223 0 0 1-.426-.11c-.19-.072-.388-.118-.572-.202a3.742 3.742 0 0 1-.202-.103M5.18 8.957c.09.008.181.014.27.032.218.05.432.118.65.17.192.05.38.111.566.178-.206-.03-.41-.07-.612-.12-.175-.048-.353-.08-.528-.126-.093-.025-.183-.056-.274-.082a3.346 3.346 0 0 0-.071-.052"></path><path fill="#7E7B72" d="M6.608 8.479c.038-.03.059-.02.064.024-.038.029-.06.02-.064-.024"></path><path fill="#0B0C0C" d="M4.782 9.947c.245-.017.492-.013.736.013.212.011.425.024.636.048l.098.004c-.284.05-.57-.005-.855.005-.167-.018-.333-.045-.501-.056z"></path><path fill="#867C68" d="m3.828 11.361.36-.005c.218 0 .435.041.654.039.158-.003.318-.007.477.004.103.008.206.028.31.033.207.006.413.026.62.047-.121.003-.242.008-.363-.002-.31-.036-.622-.033-.932-.059-.202-.02-.407 0-.61-.024-.17-.02-.344-.018-.516-.033"></path><path fill="#DDDCDC" d="M3.888 12.15c.233-.04.48-.074.71-.006a2.82 2.82 0 0 1-.378.014c-.111-.004-.221-.001-.332-.008"></path><path fill="#F9F8F8" d="M12.302 12.792c.297.028.58.143.88.15.234.003.471.018.7-.04.159-.042.319-.09.485-.088.146.01.295.032.434.082-.052.005-.104.012-.155.016-.114.003-.232-.02-.34.022-.376.106-.772.227-1.161.128a3.866 3.866 0 0 1-.843-.27"></path><path fill="#FAFAFA" d="M1.051 13.087c.184-.075.382-.107.579-.122.191-.035.389-.033.58 0 .318.022.625.114.93.202.252.072.518.085.78.07.426-.021.804-.251 1.225-.301.39-.026.764.107 1.127.232.241.081.5.086.752.066.211-.016.41-.11.623-.113.393-.024.76.16 1.15.17.238.004.479.011.71-.049.296-.039.562-.19.856-.235.178-.036.364-.042.542-.005.268.035.467.236.714.327.213.09.448.066.671.034-.326.133-.712.174-1.036.012-.185-.1-.378-.217-.596-.213-.48-.028-.908.242-1.38.276-.32.071-.65.021-.963-.058-.208-.063-.415-.145-.635-.15-.304-.02-.593.107-.897.088-.38-.018-.748-.13-1.117-.213-.15-.017-.301-.011-.451-.006-.513.09-1.005.333-1.536.29-.61-.062-1.174-.362-1.79-.37-.28-.008-.566-.008-.838.068"></path><path fill="#FCFCFB" d="M3.68 13.79c.589-.182 1.203-.339 1.824-.27.401.053.796.15 1.184.27.28.088.573.123.862.167.278.013.557.014.834 0 .213-.037.427-.062.638-.107.283-.067.559-.167.849-.204.293-.072.604-.035.882.08.322.14.668.252 1.023.241.204-.002.411.01.612-.036.37-.042.741-.131 1.116-.091.198.02.396.08.558.198-.325-.1-.671-.154-1.008-.085-.241.016-.473.092-.714.107-.401.06-.81.036-1.206-.043a6.782 6.782 0 0 0-.926-.21c-.25.028-.5.074-.743.143a4.9 4.9 0 0 1-2.131.153c-.404-.039-.787-.18-1.184-.257a4.1 4.1 0 0 0-1.062-.149 3.398 3.398 0 0 0-.998.154c-.37.081-.729.23-1.112.247a3.29 3.29 0 0 1-.696-.033 6.64 6.64 0 0 0-1.034-.103c-.239-.004-.478.017-.715-.011a5.793 5.793 0 0 1 1.74.004c.213.014.426.013.64.002.257-.046.517-.086.767-.167"></path></svg>