<svg width="194" height="50" viewBox="0 0 194 50" fill="none" xmlns="http://www.w3.org/2000/svg" class="!h-[47px] !w-auto max-w-fit "><path d="M104.759 20.4349C104.386 20.2249 103.993 20.046 103.583 19.9006C102.763 19.6087 101.881 19.4482 100.963 19.4482C96.6183 19.4482 93.084 23.0177 93.084 27.4054C93.084 31.793 96.6183 35.3613 100.963 35.3613C101.881 35.3613 102.763 35.2009 103.583 34.9089C103.619 34.8962 103.655 34.8824 103.691 34.8686C105.975 34.0168 107.763 32.1219 108.49 29.7596V25.0511C107.881 23.0708 106.526 21.4194 104.758 20.4349H104.759ZM103.692 28.5963C103.659 28.6725 103.622 28.7475 103.585 28.8202C103.083 29.7631 102.097 30.4059 100.964 30.4059C99.3257 30.4059 97.9933 29.0603 97.9933 27.4054C97.9933 25.7504 99.3257 24.4048 100.964 24.4048C102.097 24.4048 103.082 25.0465 103.585 25.9905C103.623 26.0644 103.66 26.1382 103.692 26.2155C103.848 26.5802 103.935 26.983 103.935 27.4054C103.935 27.8277 103.848 28.2305 103.692 28.5963Z" fill="#3E4BDD"></path><path d="M108.599 20.4351V35.2968H103.693V28.5964C103.85 28.2318 103.937 27.8278 103.937 27.4054C103.937 26.983 103.85 26.5803 103.693 26.2156V20.4351H108.599Z" fill="#3E4BDD"></path><path d="M117.388 16.7146H112.48V35.3304H117.388V16.7146Z" fill="#3E4BDD"></path><path d="M119.934 20.4351H109.945V25.3905H119.064C119.051 25.17 119.043 24.9473 119.043 24.7235C119.043 23.199 119.362 21.7483 119.934 20.4351Z" fill="#3E4BDD"></path><path d="M66.0224 30.3643C63.9849 30.3643 62.1989 29.2645 61.2138 27.6223C60.6996 26.766 60.4048 25.7619 60.4048 24.691C60.4048 23.6201 60.6996 22.6149 61.2138 21.7597C62.1989 20.1187 63.9849 19.0177 66.0224 19.0177C68.0598 19.0177 69.8448 20.1176 70.8298 21.7597L75.0281 19.1989C73.1826 16.1234 69.8358 14.0635 66.0224 14.0635C62.2092 14.0635 58.861 16.1234 57.0156 19.1989C56.0522 20.803 55.498 22.683 55.498 24.6922C55.498 26.7014 56.0522 28.5813 57.0156 30.1854C58.861 33.2609 62.208 35.3209 66.0224 35.3209C69.8365 35.3209 73.1826 33.2609 75.0281 30.1854L70.8298 27.6246C69.8448 29.2657 68.0587 30.3666 66.0224 30.3666V30.3643Z" fill="#3E4BDD"></path><path d="M146.571 30.3921H157.118V35.3476H143.112V35.3268H141.664V14.0994H146.571V30.3921ZM178.292 14.1097H172.998L168.609 21.6099L164.222 14.1097H158.76V35.3372H163.667V22.3404L168.611 30.7879L173.385 22.6277V35.3372H178.292V14.2413V14.1097ZM130.766 27.2612H135.115V28.6576C134.09 29.7643 132.632 30.4579 131.016 30.4579C129.398 30.4579 127.925 29.7574 126.899 28.6414C126.639 28.3587 126.405 28.0483 126.207 27.7159C125.692 26.8596 125.398 25.8556 125.398 24.7846C125.398 23.7137 125.692 22.7085 126.207 21.8534C127.192 20.2124 128.978 19.1114 131.016 19.1114C132.49 19.1114 133.832 19.6873 134.834 20.629L138.303 17.1252C136.412 15.2869 133.842 14.156 131.016 14.156C127.201 14.156 123.854 16.2159 122.009 19.2914C121.046 20.8955 120.491 22.7755 120.491 24.7846C120.491 26.7938 121.046 28.6738 122.009 30.2779C122.414 30.953 122.89 31.5796 123.43 32.1463C125.348 34.1601 128.039 35.4133 131.016 35.4133C134.83 35.4133 138.176 33.3534 140.022 30.2779V22.3081H130.766V27.2635V27.2612Z" fill="#3E4BDD"></path><path d="M91.837 26.0335V35.3362H86.9367V27.0756C86.9367 25.5062 85.6765 24.2332 84.1224 24.2332C82.5683 24.2332 81.3081 25.505 81.3081 27.0756V35.3362H76.4014V14.0188H81.3081V21.1404C82.4368 20.1352 83.9239 19.527 85.5508 19.5409C89.0452 19.5697 91.8357 22.5044 91.8357 26.0335H91.837Z" fill="#3E4BDD"></path><mask id="mask0_18297_38973" maskUnits="userSpaceOnUse" x="5" y="6" width="42" height="38"><path d="M46.7217 6.28345H5.0332V43.7166H46.7217V6.28345Z" fill="white"></path></mask><g mask="url(#mask0_18297_38973)"><path fill-rule="evenodd" clip-rule="evenodd" d="M10.2697 29.1366C10.2697 26.6479 11.7519 24.1504 14.6497 22.1804C17.5369 20.2174 21.6474 18.9329 26.295 18.9329C30.9426 18.9329 35.0531 20.2174 37.9403 22.1804C39.402 23.1741 40.5035 24.3019 41.2363 25.4952C42.1277 23.8628 42.5108 22.1283 42.3035 20.3988C42.2897 20.2828 42.3015 20.1697 42.3346 20.065C41.7409 19.5291 41.1011 19.0294 40.4245 18.5694C36.7153 16.0477 31.7131 14.5583 26.295 14.5583C20.8769 14.5583 15.8747 16.0477 12.1655 18.5694C8.46694 21.084 5.86914 24.782 5.86914 29.1366C5.86914 33.4912 8.46694 37.1893 12.1655 39.7038C15.8747 42.2256 20.8769 43.7149 26.295 43.7149C31.7131 43.7149 36.7153 42.2256 40.4245 39.7038C44.123 37.1893 46.7208 33.4912 46.7208 29.1366C46.7208 26.3679 45.6707 23.8646 43.9551 21.7622C43.8654 23.7004 43.1786 25.5637 42.0374 27.257C42.2257 27.8784 42.3203 28.5078 42.3203 29.1366C42.3203 31.6254 40.8381 34.1228 37.9403 36.0929C35.0531 38.0558 30.9426 39.3403 26.295 39.3403C21.6474 39.3403 17.5369 38.0558 14.6497 36.0929C11.7519 34.1228 10.2697 31.6254 10.2697 29.1366Z" fill="#3E4BDD" fill-opacity="0.7"></path><path fill-rule="evenodd" clip-rule="evenodd" d="M10.2341 24.0528C9.06013 27.3644 9.33678 30.3502 10.8635 32.4937C12.3903 34.6373 15.1314 35.8884 18.6634 35.8876C22.1888 35.8868 26.2972 34.6152 30.0716 31.9586C33.846 29.302 36.4172 25.8721 37.589 22.5668C38.7629 19.2552 38.4863 16.2695 36.9595 14.1259C35.4328 11.9824 32.6917 10.7312 29.1596 10.732C25.6343 10.7328 21.5259 12.0044 17.7515 14.6611C13.9771 17.3176 11.4058 20.7476 10.2341 24.0528ZM6.0125 22.5738C7.52672 18.3025 10.7243 14.155 15.1649 11.0295C19.6055 7.90397 24.6029 6.28338 29.1586 6.28235C33.7076 6.28138 38.023 7.9188 40.6127 11.5547C43.2023 15.1905 43.3226 19.7807 41.8106 24.0457C40.2964 28.3171 37.0987 32.4646 32.6582 35.5901C28.2176 38.7157 23.2202 40.3363 18.6645 40.3373C14.1155 40.3382 9.80005 38.7008 7.21042 35.065C4.62079 31.4291 4.50054 26.8389 6.0125 22.5738Z" fill="#3E4BDD"></path></g></svg>