<?xml version="1.0" encoding="utf-8"?>
<!-- Generator: Adobe Illustrator 19.2.1, SVG Export Plug-In . SVG Version: 6.00 Build 0)  -->
<svg version="1.1" id="layer" xmlns="http://www.w3.org/2000/svg" xmlns:xlink="http://www.w3.org/1999/xlink" x="0px" y="0px"
	 viewBox="0 0 652 652" style="enable-background:new 0 0 652 652;" xml:space="preserve">
<style type="text/css">
	.st0{fill:#191F1F;}
	.st1{fill:#FCFCFC;}
</style>
<rect x="26" y="176" class="st0" width="600" height="300"/>
<path class="st1" d="M312.8,289.5c10.9,0,20.6,5.5,26.7,14.1v-46.2h12.4v102.9h-12.4v-11.9c-6.1,8.7-15.7,14.1-26.7,14.1
	c-20.4,0-37.7-16-37.7-36.5C275.1,305.6,292.4,289.5,312.8,289.5z M312.8,351.5c16.2,0,26.7-10.8,26.7-25.5s-10.5-25.5-26.7-25.5
	c-14.4,0-25.3,10.3-25.3,25.5C287.5,341.2,298.4,351.5,312.8,351.5z M254.4,303.6c-6.1-8.6-15.7-14.1-26.7-14.1
	c-20.4,0-37.7,16-37.7,36.5c0,20.4,17.3,36.5,37.7,36.5c10.8,0,20.4-5.5,26.7-14.1v11.9h12.4v-68.6h-12.4V303.6z M254.4,326
	c0,14.5-10.6,25.5-26.7,25.5c-14.4,0-25.3-10.3-25.3-25.5c0-15.2,10.9-25.5,25.3-25.5C243.9,300.5,254.4,311.3,254.4,326z
	 M98.9,324.2v3.7c2.3,0,4.5,0.4,6.6,1.3c2.1,0.9,4,2.1,5.6,3.7c1.6,1.6,2.9,3.5,3.7,5.6c0.9,2.1,1.3,4.3,1.3,6.6h3.5
	c0-4.5,1.8-8.9,5.1-12.1s7.6-5,12.2-5v-3.7c-2.3,0-4.5-0.4-6.6-1.3c-2.1-0.9-4-2.1-5.6-3.7c-1.6-1.6-2.9-3.5-3.7-5.6
	s-1.3-4.3-1.3-6.6h-3.5c0,4.5-1.8,8.9-5.1,12.1C107.8,322.4,103.4,324.2,98.9,324.2z M145.8,300.6h-29.7v-11h29.7
	c20.9,0,37.3,16.3,37.3,36.3s-16.4,36.3-37.3,36.3h-17.3v32.2h-12.4v-43.2h29.7c14.5,0,24.9-10.3,24.9-25.4S160.3,300.6,145.8,300.6
	z M425.9,303.6c-6.1-8.6-15.7-14.1-26.7-14.1c-20.4,0-37.7,16-37.7,36.5c0,20.4,17.3,36.5,37.7,36.5c10.9,0,20.6-5.5,26.7-14.1v11.9
	h12.4V257.4h-12.4V303.6z M425.9,326c0,14.7-10.5,25.5-26.7,25.5c-14.4,0-25.3-10.3-25.3-25.5c0-15.2,10.9-25.5,25.3-25.5
	C415.4,300.5,425.9,311.3,425.9,326z M450.8,360.3V257.4h12.4v102.9H450.8z M544.6,330.8c0-22.6-11.5-41.1-35.4-41.1
	c-20.9,0-37,16.6-37,36.3c0,19.7,16.2,36.3,37,36.3c16.6,0,28.9-10.4,33.6-21h-13.4c-5,7.5-11.6,11.4-20.2,11.4
	c-12.4,0-22.4-8.6-24.3-21.9H544.6z M509.2,299.3c13.3,0,22.9,10.7,22.9,21.9h-47.2C486.8,307.9,496.8,299.3,509.2,299.3z"/>
</svg>
